<svg width="123" height="123" viewBox="0 0 123 123" fill="none" xmlns="http://www.w3.org/2000/svg">
<path d="M103.279 72.38C105.022 72.38 105.559 70.4208 105.559 67.8629C105.559 65.4634 105.027 63.3501 103.279 63.3501C101.531 63.3501 100.998 65.4634 100.998 67.8629C100.998 70.4208 101.531 72.38 103.279 72.38Z" fill="#9AA1AD"/>
<path d="M63.0642 70.7021C65.992 70.7021 67.6562 68.1882 67.6562 61.0338C67.6562 55.0417 66.4058 51.3655 63.0642 51.3655C59.7225 51.3655 58.4722 55.0417 58.4722 61.0338C58.4678 68.1794 60.1408 70.7021 63.0642 70.7021Z" fill="#9AA1AD"/>
<path d="M39.8225 70.7021C42.7459 70.7021 44.4189 68.1882 44.4189 61.0338C44.4189 55.0417 43.1685 51.3655 39.8225 51.3655C36.4808 51.3655 35.2261 55.0417 35.2261 61.0338C35.2261 68.1794 36.8947 70.7021 39.8225 70.7021Z" fill="#9AA1AD"/>
<path d="M61.0301 122.06C94.6843 122.06 122.06 94.6794 122.06 61.034C122.06 27.3886 94.6799 -0.000488281 61.0301 -0.000488281C27.3803 -0.000488281 0 27.3842 0 61.0296C0 94.675 27.3803 122.06 61.0301 122.06ZM109.658 67.8626C109.658 72.1728 107.87 75.4924 103.278 75.4924C98.6819 75.4924 96.9032 72.1772 96.9032 67.8626C96.9032 63.5523 98.6819 60.2327 103.278 60.2327C107.87 60.2327 109.658 63.5523 109.658 67.8626ZM100.734 45.5233C101.57 45.5233 102.213 46.2057 102.213 46.8882C102.213 47.2844 102.068 47.7203 101.799 48.2442L88.1331 75.4176C87.8645 75.9371 87.4066 76.5359 86.6537 76.5359C85.8172 76.5359 85.1744 75.8579 85.1744 75.1754C85.1744 74.7792 85.3241 74.3345 85.5927 73.815L99.2587 46.6416C99.5184 46.1265 99.9719 45.5233 100.734 45.5233ZM84.065 46.5624C88.657 46.5624 90.4401 49.8776 90.4401 54.1966C90.4401 58.5113 88.657 61.8265 84.065 61.8265C79.473 61.8265 77.6855 58.5113 77.6855 54.1966C77.6855 49.8776 79.473 46.5624 84.065 46.5624ZM63.0641 46.5624C69.2147 46.5624 73.2035 51.2424 73.2035 60.673C73.2035 67.7437 71.0814 75.4968 63.0641 75.4968C55.0556 75.4968 52.9247 67.7437 52.9247 60.673C52.9247 51.2424 56.9136 46.5624 63.0641 46.5624ZM39.8223 46.5624C45.9729 46.5624 49.9617 51.2424 49.9617 60.673C49.9617 67.7437 47.8396 75.4968 39.8223 75.4968C31.8138 75.4968 29.6829 67.7437 29.6829 60.673C29.6829 51.2424 33.6674 46.5624 39.8223 46.5624ZM12.4024 54.6721C12.4024 53.1972 13.164 52.7922 15.1365 52.3915L16.5365 52.0745C20.7543 51.1147 19.5744 46.558 22.8059 46.558C24.0167 46.558 25.0073 47.1171 25.0073 49.2744V71.9747C25.0073 74.0572 24.2456 75.488 22.1191 75.488C19.997 75.488 19.2354 74.0528 19.2354 71.9747V56.7898H14.3352C13.0892 56.7942 12.4024 56.3143 12.4024 54.6721Z" fill="#9AA1AD"/>
<path d="M84.0648 58.7091C85.8083 58.7091 86.341 56.7543 86.341 54.2008C86.341 51.8057 85.8083 49.6836 84.0648 49.6836C82.3169 49.6836 81.7798 51.8013 81.7798 54.2008C81.7886 56.7543 82.3169 58.7091 84.0648 58.7091Z" fill="#9AA1AD"/>
</svg>
