<svg width="148" height="150" viewBox="0 0 148 150" fill="none" xmlns="http://www.w3.org/2000/svg">
<path d="M124.295 115.724C111.168 127.195 95.1003 135.515 76.5368 140.454C60.293 144.776 42.1149 146.385 23.8526 145.125C22.1578 145.008 20.5681 144.241 19.4326 142.977C16.0623 139.226 13.714 134.381 11.7476 129.785C9.4101 124.322 7.90904 118.603 6.89644 112.756C4.73953 100.301 5.45947 87.8473 7.64243 75.4458C8.11976 72.734 8.85668 70.1495 9.56258 67.5009C9.99045 65.8948 9.95942 63.6919 7.71794 63.7724C5.49518 63.852 5.0597 66.9331 4.621 68.6115C3.78867 71.7963 3.35583 75.0603 2.73363 78.2904C-0.670888 95.963 -0.670889 123.473 14.4942 144.249C16.1422 146.507 17.7258 148.473 20.5432 149.139C25.4678 150.303 31.1887 149.95 36.2266 149.95C50.6401 149.95 64.5281 148.192 77.6653 144.697C96.8852 139.582 113.545 130.947 127.183 119.029C129.311 117.17 126.437 113.853 124.295 115.724Z" fill="#9AA1AD"/>
<path d="M146.92 77.0928C145.95 67.3007 141.021 58.3845 133.396 52.6305C118.002 41.0139 93.7121 43.5723 82.9504 60.3511C78.1522 67.8315 76.5564 76.8212 78.4051 85.1442C74.1041 83.9033 69.5779 83.5094 65.1037 84.0048C58.0069 84.7903 51.4153 87.786 46.3154 92.4303C46.6011 89.3854 46.8103 85.5908 46.7538 81.2132C46.618 70.6902 44.8369 54.7048 37.1914 38.008C42.6226 35.585 45.4775 32.9648 46.9508 31.0701C47.904 32.6128 49.2979 33.8311 50.9474 34.5241C54.6437 36.077 57.8334 34.009 61.163 32.5756C64.1683 31.2817 67.1204 29.7341 69.0315 26.9735C71.2747 23.7331 70.69 20.599 69.7259 17.0534C68.6103 12.9486 67.4566 8.70384 64.6067 4.81789C64.5739 4.77312 64.5394 4.72951 64.5031 4.68737C62.2722 2.08474 59.376 0.466322 56.3478 0.129762C56.3127 0.125958 56.2776 0.122738 56.2425 0.12069C51.8766 -0.152363 47.3324 0.0317208 41.5088 0.716839C41.4786 0.720351 41.4485 0.724449 41.4183 0.729424C32.815 2.10581 26.4484 7.15742 21.8619 13.2571C16.8887 19.8709 17.0491 28.9135 17.3054 33.0567C16.3277 36.0372 15.044 38.9392 13.6884 42.0039C12.2936 45.1574 10.8514 48.4182 9.76679 51.7876C8.90813 54.4555 13.073 55.8445 13.9454 53.1327C16.0546 46.5803 19.5264 40.5605 21.6143 33.9991C22.1542 32.3019 19.5226 23.3831 25.7537 15.3098C30.0151 9.78844 35.0383 6.20715 42.0672 5.07134C47.5721 4.42544 51.8476 4.24867 55.9121 4.4986C57.7907 4.7219 59.6341 5.77899 61.1162 7.48228C63.4475 10.6939 64.4396 14.3431 65.4891 18.2048C66.26 21.0421 66.552 21.9151 65.3264 24.6088C63.8148 26.6887 61.434 27.6056 59.1887 28.6437C57.1567 29.5831 54.3867 31.5721 52.1294 30.2112C50.974 29.5146 50.7361 28.5114 50.0545 27.4716C49.0363 25.9178 46.5943 23.7331 47.5911 21.602C48.4893 19.6818 50.7753 20.1747 52.2444 20.923C53.689 21.659 55.8202 22.5719 56.7842 20.6669C57.7816 18.6964 55.6686 17.7406 54.2378 17.0116C52.8113 16.2846 51.0381 15.3812 48.5999 15.9727C46.2364 16.4605 44.3531 17.9221 43.5471 19.8937C42.2872 22.7726 43.4122 25.3636 44.4939 27.2802L44.2296 27.2029C44.2296 27.2029 44.2346 27.1816 44.249 27.1412C43.7605 28.4991 40.9671 31.8138 33.8926 34.638C33.0351 34.9804 32.4919 35.8434 32.5261 36.7562C32.5513 37.4218 32.6602 38.6656 32.9312 39.2471C40.4619 55.4034 42.2161 70.9376 42.3613 81.1239C42.4868 89.9224 41.4687 96.358 41.0358 98.6727C36.0647 106.473 34.8701 116.42 37.9696 125.136C38.9102 127.782 43.0555 126.337 42.1058 123.666C38.5292 113.608 41.8023 102.097 49.8042 95.2266C58.3224 87.9133 70.6086 86.2019 80.8728 90.6918C82.6127 91.4536 84.4813 89.6711 83.8026 87.8967C81.4798 81.8263 81.5108 75.0076 83.6422 68.8886C85.7778 62.7577 89.8103 58.328 95.0188 54.6074C105.423 47.1758 120.822 48.6409 130.751 56.1336C137.4 61.1516 141.701 68.948 142.55 77.5245C143.344 85.536 141.211 93.9333 136.381 101.808C135.823 102.719 135.221 103.635 134.594 104.532C132.973 106.846 136.557 109.38 138.189 107.05C138.868 106.081 139.519 105.09 140.124 104.103C145.459 95.4057 147.808 86.0655 146.92 77.0928Z" fill="#9AA1AD"/>
</svg>
