<svg width="150" height="150" viewBox="0 0 150 150" fill="none" xmlns="http://www.w3.org/2000/svg">
<g clip-path="url(#clip0)">
<path d="M65.1854 111.958C64.4083 111.958 63.6633 111.649 63.114 111.1L31.2582 79.2453C30.1138 78.1009 30.1138 76.2459 31.2582 75.1014L47.8304 58.5293C48.9748 57.3848 50.8299 57.3848 51.9743 58.5293L65.1854 71.7403L98.0253 38.8992C98.5746 38.3499 99.3208 38.0409 100.098 38.0409C100.874 38.0409 101.62 38.3499 102.169 38.8992L118.741 55.4725C119.886 56.6158 119.886 58.4709 118.741 59.6153L67.2567 111.101C66.7074 111.65 65.9624 111.958 65.1854 111.958ZM37.4735 77.174L65.1854 104.886L112.527 57.5439L100.098 45.1133L67.2567 77.9545C66.1123 79.0989 64.2572 79.0989 63.114 77.9545L49.9029 64.7434L37.4735 77.174Z" fill="#9AA1AD"/>
<path d="M74.9817 150C73.0682 150 71.1525 149.926 69.2333 149.78C51.4103 148.413 34.6241 140.69 21.9669 128.034C7.80144 113.867 0 95.0335 0 74.9995C0 54.9666 7.80144 36.1319 21.9669 21.9664C36.1324 7.80095 54.9671 -0.000488281 75 -0.000488281C95.034 -0.000488281 113.868 7.80095 128.034 21.9664C140.69 34.6236 148.414 51.4098 149.78 69.2328C151.132 86.8625 146.222 104.435 135.957 118.715C135.013 120.029 133.182 120.327 131.868 119.383C130.554 118.439 130.256 116.608 131.2 115.294C151.041 87.6944 147.968 50.1876 123.89 26.1092C96.9326 -0.848495 53.0685 -0.848495 26.1108 26.1092C-0.848007 53.0681 -0.848007 96.931 26.1108 123.89C50.1881 147.966 87.6961 151.041 115.296 131.198C116.61 130.254 118.439 130.554 119.385 131.867C120.329 133.181 120.029 135.011 118.715 135.956C105.989 145.105 90.6475 150 74.9817 150Z" fill="#9AA1AD"/>
<path d="M125.963 128.892C125.192 128.892 124.436 128.579 123.892 128.034C123.347 127.488 123.033 126.733 123.033 125.963C123.033 125.191 123.347 124.436 123.892 123.891C124.436 123.346 125.192 123.033 125.963 123.033C126.733 123.033 127.488 123.346 128.034 123.891C128.579 124.436 128.893 125.191 128.893 125.963C128.893 126.733 128.579 127.488 128.034 128.034C127.488 128.579 126.733 128.892 125.963 128.892Z" fill="#9AA1AD"/>
</g>
<defs>
<clipPath id="clip0">
<rect width="150" height="150" fill="white" transform="translate(0 -0.000488281)"/>
</clipPath>
</defs>
</svg>
