<svg width="16" height="16" viewBox="0 0 16 16" fill="none" xmlns="http://www.w3.org/2000/svg">
<path d="M8 0.03125C6.42393 0.03125 4.88325 0.498609 3.5728 1.37423C2.26234 2.24984 1.24097 3.49439 0.637834 4.95049C0.0346988 6.40659 -0.123109 8.00884 0.184367 9.55463C0.491843 11.1004 1.25079 12.5203 2.36524 13.6348C3.47969 14.7492 4.89959 15.5082 6.44537 15.8156C7.99116 16.1231 9.59341 15.9653 11.0495 15.3622C12.5056 14.759 13.7502 13.7377 14.6258 12.4272C15.5014 11.1167 15.9687 9.57607 15.9687 8C15.9664 5.88729 15.126 3.86178 13.6321 2.36787C12.1382 0.873954 10.1127 0.033628 8 0.03125ZM8 15.0312C6.60935 15.0312 5.24993 14.6189 4.09365 13.8463C2.93736 13.0737 2.03615 11.9755 1.50397 10.6907C0.971793 9.40595 0.832551 7.9922 1.10385 6.62827C1.37516 5.26434 2.04482 4.01149 3.02815 3.02816C4.01149 2.04482 5.26434 1.37516 6.62827 1.10385C7.9922 0.832551 9.40595 0.971793 10.6907 1.50397C11.9755 2.03615 13.0737 2.93736 13.8463 4.09365C14.6189 5.24993 15.0312 6.60935 15.0312 8C15.0291 9.86415 14.2877 11.6514 12.9695 12.9695C11.6514 14.2877 9.86415 15.0291 8 15.0312ZM5.34398 7.99961C5.34403 8.5571 5.51946 9.10044 5.84544 9.55269C6.17142 10.0049 6.63142 10.3432 7.1603 10.5195C7.68917 10.6958 8.26011 10.7012 8.79225 10.535C9.32439 10.3689 9.79076 10.0395 10.1253 9.59352C10.1623 9.5443 10.2086 9.50285 10.2616 9.47153C10.3146 9.44022 10.3733 9.41965 10.4342 9.41099C10.4951 9.40234 10.5572 9.40578 10.6168 9.42111C10.6764 9.43645 10.7325 9.46337 10.7817 9.50035C10.8309 9.53733 10.8723 9.58364 10.9037 9.63664C10.935 9.68964 10.9555 9.74829 10.9642 9.80924C10.9728 9.87019 10.9694 9.93225 10.9541 9.99187C10.9387 10.0515 10.9118 10.1075 10.8748 10.1567C10.4222 10.7599 9.79118 11.2054 9.07126 11.4301C8.35134 11.6548 7.57897 11.6474 6.86353 11.4088C6.1481 11.1702 5.52586 10.7125 5.08493 10.1007C4.644 9.48884 4.40674 8.75378 4.40674 7.99961C4.40674 7.24544 4.644 6.51037 5.08493 5.89852C5.52586 5.28667 6.1481 4.82905 6.86353 4.59045C7.57897 4.35185 8.35134 4.34438 9.07126 4.56909C9.79118 4.79379 10.4222 5.2393 10.8748 5.8425C10.9495 5.94189 10.9817 6.06689 10.9642 6.18998C10.9467 6.31307 10.8811 6.42418 10.7817 6.49887C10.6823 6.57355 10.5573 6.60569 10.4342 6.58822C10.3111 6.57075 10.2 6.5051 10.1253 6.4057C9.79076 5.95976 9.32439 5.63037 8.79225 5.46418C8.26011 5.298 7.68917 5.30344 7.1603 5.47975C6.63142 5.65605 6.17142 5.99428 5.84544 6.44653C5.51946 6.89878 5.34403 7.44212 5.34398 7.99961Z" fill="white"/>
</svg>
