<svg width="25" height="25" viewBox="0 0 25 25" fill="none" xmlns="http://www.w3.org/2000/svg">
<path d="M2.19727 10.2539H9.21812L11.9333 12.969C12.0734 13.1092 12.2607 13.1836 12.4514 13.1836C12.5457 13.1836 12.6409 13.1654 12.7315 13.1278C13.0052 13.0145 13.1836 12.7474 13.1836 12.4512V10.2539H14.8926C16.1042 10.2539 17.0899 9.26821 17.0899 8.05664V2.19727C17.0899 0.985693 16.1042 0 14.8926 0H2.19727C0.985693 0 0 0.985693 0 2.19727V8.05664C0 9.26821 0.985693 10.2539 2.19727 10.2539ZM3.66211 2.92969H13.4277C13.8322 2.92969 14.1602 3.25762 14.1602 3.66211C14.1602 4.0666 13.8322 4.39453 13.4277 4.39453H3.66211C3.25762 4.39453 2.92969 4.0666 2.92969 3.66211C2.92969 3.25762 3.25762 2.92969 3.66211 2.92969ZM3.66211 5.85938H13.4277C13.8322 5.85938 14.1602 6.1873 14.1602 6.5918C14.1602 6.99629 13.8322 7.32422 13.4277 7.32422H3.66211C3.25762 7.32422 2.92969 6.99629 2.92969 6.5918C2.92969 6.1873 3.25762 5.85938 3.66211 5.85938Z" fill="white"/>
<path d="M10.0098 16.6016H9.20366C9.1085 16.1347 8.92383 15.7001 8.66909 15.3159L9.24058 14.7445C9.52661 14.4585 9.52661 13.9947 9.24058 13.7087C8.95454 13.4227 8.49082 13.4227 8.20478 13.7087L7.6333 14.2802C7.24907 14.0254 6.81455 13.8407 6.34771 13.7456V12.9395C6.34771 12.535 6.01978 12.207 5.61528 12.207C5.21079 12.207 4.88286 12.535 4.88286 12.9395V13.7456C4.41602 13.8407 3.98149 14.0254 3.59727 14.2801L3.02578 13.7086C2.73979 13.4227 2.27603 13.4227 1.98999 13.7086C1.704 13.9946 1.704 14.4584 1.98999 14.7444L2.56147 15.3159C2.30669 15.7001 2.12202 16.1346 2.0269 16.6015H1.2207C0.816211 16.6015 0.488281 16.9294 0.488281 17.3339C0.488281 17.7384 0.816211 18.0664 1.2207 18.0664H2.02681C2.12197 18.5333 2.30664 18.9678 2.56138 19.352L1.98989 19.9234C1.70386 20.2094 1.70386 20.6732 1.98989 20.9592C2.13296 21.1023 2.32036 21.1738 2.50781 21.1738C2.69521 21.1738 2.88271 21.1022 3.02568 20.9592L3.59717 20.3877C3.9814 20.6425 4.41592 20.8272 4.88276 20.9223V21.7285C4.88276 22.133 5.21069 22.4609 5.61519 22.4609C6.01968 22.4609 6.34761 22.133 6.34761 21.7285V20.9224C6.81445 20.8273 7.24897 20.6426 7.6332 20.3878L8.20469 20.9593C8.3477 21.1023 8.53516 21.1739 8.72256 21.1739C8.90996 21.1739 9.09746 21.1023 9.24048 20.9593C9.52646 20.6733 9.52646 20.2096 9.24048 19.9235L8.66899 19.3521C8.92378 18.9679 9.10845 18.5333 9.20356 18.0665H10.0098C10.4143 18.0665 10.7422 17.7385 10.7422 17.334C10.7422 16.9295 10.4143 16.6016 10.0098 16.6016ZM5.61523 18.0664C5.21074 18.0664 4.88281 17.7385 4.88281 17.334C4.88281 16.9295 5.21074 16.6016 5.61523 16.6016C6.01973 16.6016 6.34766 16.9295 6.34766 17.334C6.34766 17.7385 6.01973 18.0664 5.61523 18.0664Z" fill="white"/>
<path d="M24.6337 19.435L24.0331 19.0882C24.0616 18.8602 24.076 18.6328 24.076 18.4082C24.076 18.1836 24.0616 17.9562 24.0331 17.7282L24.6337 17.3814C24.984 17.1792 25.104 16.7312 24.9018 16.3809L23.4369 13.8437C23.2347 13.4934 22.7867 13.3733 22.4365 13.5756L21.8333 13.9239C21.4677 13.6466 21.0747 13.4181 20.658 13.2403V12.5488C20.658 12.1443 20.3301 11.8164 19.9256 11.8164H16.9959C16.5914 11.8164 16.2634 12.1443 16.2634 12.5488V13.2402C15.8467 13.418 15.4538 13.6466 15.0882 13.9238L14.485 13.5756C14.1347 13.3733 13.6868 13.4934 13.4845 13.8437L12.0197 16.3809C11.8174 16.7312 11.9375 17.1791 12.2878 17.3813L12.8883 17.7281C12.8599 17.9562 12.8455 18.1835 12.8455 18.4082C12.8455 18.6328 12.8599 18.8601 12.8883 19.0882L12.2878 19.435C11.9375 19.6372 11.8174 20.0852 12.0197 20.4354L13.4845 22.9727C13.6868 23.323 14.1347 23.443 14.4851 23.2407L15.0882 22.8925C15.4539 23.1698 15.8467 23.3983 16.2635 23.5761V24.2676C16.2635 24.6721 16.5914 25 16.9959 25H19.9256C20.3301 25 20.658 24.6721 20.658 24.2676V23.5761C21.0748 23.3983 21.4676 23.1698 21.8333 22.8925L22.4365 23.2408C22.7867 23.443 23.2347 23.323 23.4369 22.9727L24.9018 20.4355C25.104 20.0852 24.984 19.6373 24.6337 19.435ZM18.4607 20.6055C17.2491 20.6055 16.2634 19.6198 16.2634 18.4082C16.2634 17.1966 17.2491 16.2109 18.4607 16.2109C19.6723 16.2109 20.658 17.1966 20.658 18.4082C20.658 19.6198 19.6723 20.6055 18.4607 20.6055Z" fill="white"/>
</svg>
