<svg width="25" height="25" viewBox="0 0 25 25" fill="none" xmlns="http://www.w3.org/2000/svg">
<path d="M12.5 25C9.16113 25 6.02207 23.6998 3.66113 21.3389C1.3002 18.9779 0 15.8389 0 12.5C0 9.16113 1.30024 6.02212 3.66113 3.66113C6.02202 1.30015 9.16113 0 12.5 0C15.8389 0 18.9779 1.3002 21.3389 3.66113C23.6998 6.02207 25 9.16113 25 12.5C25 15.8389 23.6998 18.9779 21.3389 21.3389C18.978 23.6999 15.8389 25 12.5 25ZM12.5 1.5625C6.46904 1.5625 1.5625 6.46904 1.5625 12.5C1.5625 18.531 6.46904 23.4375 12.5 23.4375C18.531 23.4375 23.4375 18.531 23.4375 12.5C23.4375 6.46904 18.531 1.5625 12.5 1.5625Z" fill="white"/>
<path d="M12.5 11.7188C11.423 11.7188 10.5469 10.8426 10.5469 9.76562C10.5469 8.68867 11.423 7.8125 12.5 7.8125C13.577 7.8125 14.4531 8.68867 14.4531 9.76562C14.4531 10.1971 14.8029 10.5469 15.2344 10.5469C15.6659 10.5469 16.0156 10.1971 16.0156 9.76562C16.0156 8.09565 14.8448 6.69492 13.2812 6.33857V5.46875C13.2812 5.0373 12.9315 4.6875 12.5 4.6875C12.0685 4.6875 11.7188 5.0373 11.7188 5.46875V6.33857C10.1552 6.69492 8.98438 8.09565 8.98438 9.76562C8.98438 11.7042 10.5615 13.2812 12.5 13.2812C13.577 13.2812 14.4531 14.1574 14.4531 15.2344C14.4531 16.3113 13.577 17.1875 12.5 17.1875C11.423 17.1875 10.5469 16.3113 10.5469 15.2344C10.5469 14.8029 10.1971 14.4531 9.76562 14.4531C9.33413 14.4531 8.98438 14.8029 8.98438 15.2344C8.98438 16.9043 10.1552 18.3051 11.7188 18.6614V19.5312C11.7188 19.9627 12.0685 20.3125 12.5 20.3125C12.9315 20.3125 13.2812 19.9627 13.2812 19.5312V18.6614C14.8448 18.3051 16.0156 16.9043 16.0156 15.2344C16.0156 13.2958 14.4385 11.7188 12.5 11.7188Z" fill="white"/>
</svg>
