<svg width="214" height="200" viewBox="0 0 214 200" fill="none" xmlns="http://www.w3.org/2000/svg">
<path d="M67.3986 6.27942C77.4889 9.7468 83.0823 20.0882 79.8906 29.3762C76.6982 38.6663 65.9299 43.3841 55.8396 39.9167C45.7477 36.4488 40.1538 26.1084 43.3463 16.8183C46.538 7.53023 57.3066 2.81147 67.3986 6.27942Z" fill="#32363C" fill-opacity="0.6"/>
<path d="M146.18 193.191C136.089 189.723 130.495 179.382 133.687 170.094C136.879 160.805 147.648 156.086 157.739 159.554C167.831 163.022 173.424 173.363 170.232 182.652C167.04 191.94 156.272 196.659 146.18 193.191Z" fill="#32363C" fill-opacity="0.6"/>
<path d="M99.275 67.1924L76.7918 45.7248C80.2804 43.781 83.2765 41.0793 85.4946 37.7577L107.978 59.2253C104.489 61.1685 101.493 63.8703 99.275 67.1924Z" fill="#32363C" fill-opacity="0.6"/>
<path d="M82.8775 149.99C86.3145 147.803 89.1981 144.844 91.2158 141.251L128.657 160.896C127.271 162.796 126.143 164.911 125.347 167.227C124.838 168.709 124.492 170.21 124.282 171.714L82.8775 149.99Z" fill="#32363C" fill-opacity="0.6"/>
<path d="M81.4238 106.893L99.3365 94.2935C101.511 97.7379 104.484 100.776 108.104 103.117L90.1914 115.716C88.0173 112.272 85.0438 109.235 81.4238 106.893Z" fill="#32363C" fill-opacity="0.6"/>
<path d="M72.1572 111.341C82.2486 114.809 87.8428 125.148 84.6506 134.438C81.4592 143.725 70.6903 148.444 60.599 144.976C50.507 141.508 44.9126 131.166 48.104 121.879C51.2962 112.589 62.0653 107.873 72.1572 111.341Z" fill="#32363C" fill-opacity="0.6"/>
<path d="M117.371 98.6694C107.279 95.2017 101.686 84.8608 104.878 75.5724C108.07 66.284 118.838 61.5654 128.929 65.0331C139.021 68.5009 144.614 78.8417 141.422 88.1301C138.23 97.4185 127.462 102.137 117.371 98.6694Z" fill="#32363C" fill-opacity="0.6"/>
</svg>
