<svg width="214" height="200" viewBox="0 0 214 200" fill="none" xmlns="http://www.w3.org/2000/svg">
<path d="M67.3988 6.27942C77.4891 9.7468 83.0826 20.0882 79.8909 29.3762C76.6984 38.6663 65.9301 43.3841 55.8399 39.9167C45.7479 36.4488 40.1541 26.1084 43.3465 16.8183C46.5382 7.53023 57.3069 2.81147 67.3988 6.27942Z" fill="#32363C" fill-opacity="0.6"/>
<path d="M146.18 193.191C136.088 189.723 130.495 179.382 133.687 170.094C136.879 160.805 147.647 156.086 157.739 159.554C167.83 163.022 173.423 173.363 170.232 182.652C167.04 191.94 156.271 196.659 146.18 193.191Z" fill="#32363C" fill-opacity="0.6"/>
<path d="M99.2746 67.1921L76.7913 45.7246C80.2799 43.7808 83.2761 41.0791 85.4941 37.7575L107.977 59.225C104.489 61.1683 101.493 63.87 99.2746 67.1921Z" fill="#32363C" fill-opacity="0.6"/>
<path d="M82.877 149.989C86.314 147.803 89.1976 144.843 91.2153 141.251L128.656 160.896C127.27 162.796 126.142 164.911 125.347 167.227C124.837 168.709 124.491 170.21 124.282 171.714L82.877 149.989Z" fill="#32363C" fill-opacity="0.6"/>
<path d="M81.4233 106.893L99.336 94.2932C101.51 97.7377 104.483 100.776 108.103 103.117L90.1909 115.715C88.0168 112.272 85.0433 109.235 81.4233 106.893Z" fill="#32363C" fill-opacity="0.6"/>
<path d="M72.1567 111.341C82.2481 114.809 87.8423 125.148 84.6501 134.438C81.4587 143.725 70.6899 148.444 60.5985 144.976C50.5065 141.508 44.9121 131.166 48.1035 121.879C51.2957 112.589 62.0648 107.873 72.1567 111.341Z" fill="#32363C" fill-opacity="0.6"/>
<path d="M117.371 98.6696C107.279 95.2019 101.686 84.861 104.878 75.5726C108.07 66.2842 118.838 61.5656 128.929 65.0334C139.021 68.5011 144.614 78.842 141.422 88.1304C138.23 97.4188 127.462 102.137 117.371 98.6696Z" fill="#32363C" fill-opacity="0.6"/>
</svg>
