<svg width="53" height="41" viewBox="0 0 53 41" fill="none" xmlns="http://www.w3.org/2000/svg">
<path d="M52.2291 10.9883V33.7031C52.2291 37.6302 49.0469 40.8125 45.1198 40.8125H7.88019C5.99466 40.8125 4.18637 40.0635 2.8531 38.7302C1.51983 37.3969 0.770813 35.5886 0.770813 33.7031V10.9883L25.6848 24.6925C26.1926 24.9715 26.8087 24.9715 27.3152 24.6925L52.2291 10.987V10.9883ZM45.1198 0.1875C46.9756 0.187672 48.7579 0.91354 50.0857 2.21005C51.4136 3.50656 52.1819 5.27092 52.2264 7.12625L26.5 21.2773L0.773521 7.1249L0.77623 7.00302C0.852067 5.16983 1.6337 3.43693 2.95767 2.16672C4.28164 0.896503 6.04543 0.18733 7.88019 0.1875H45.1198Z" fill="white"/>
</svg>
