<svg width="15" height="15" viewBox="0 0 15 15" fill="none" xmlns="http://www.w3.org/2000/svg">
<g clip-path="url(#clip0)">
<path d="M14.8679 2.97998L10.3187 7.49987L14.8679 12.0198C14.9502 11.8479 15 11.6579 15 11.455V3.54479C15 3.34186 14.9502 3.15187 14.8679 2.97998Z" fill="white" fill-opacity="0.9"/>
<path d="M13.6816 2.22656H1.31835C1.11542 2.22656 0.925425 2.27646 0.75354 2.35869L6.56789 8.14375C7.08199 8.65786 7.918 8.65786 8.43211 8.14375L14.2465 2.35869C14.0746 2.27646 13.8846 2.22656 13.6816 2.22656Z" fill="white" fill-opacity="0.9"/>
<path d="M0.132129 2.97998C0.0498926 3.15187 0 3.34186 0 3.54479V11.455C0 11.6579 0.0498926 11.8479 0.132129 12.0198L4.68132 7.49987L0.132129 2.97998Z" fill="white" fill-opacity="0.9"/>
<path d="M9.69726 8.12158L9.05352 8.76532C8.19691 9.62193 6.80305 9.62193 5.94644 8.76532L5.30273 8.12158L0.75354 12.6415C0.925425 12.7237 1.11542 12.7736 1.31835 12.7736H13.6816C13.8846 12.7736 14.0746 12.7237 14.2465 12.6415L9.69726 8.12158Z" fill="white" fill-opacity="0.9"/>
</g>
<defs>
<clipPath id="clip0">
<rect width="15" height="15" fill="white"/>
</clipPath>
</defs>
</svg>
