<svg width="90" height="90" viewBox="0 0 90 90" fill="none" xmlns="http://www.w3.org/2000/svg">
<path d="M81.7147 0H59.121C54.504 0 50.8359 3.7459 50.8359 8.28527V42.1759C50.8359 46.7443 54.5527 50.461 59.121 50.461H62.1329V59.1212C62.1097 61.3992 64.9549 62.6674 66.6341 60.9855L77.1586 50.461H81.7149C86.2833 50.461 90.0002 46.7443 90.0002 42.1759V8.28527C90 3.65607 86.2411 0 81.7147 0V0ZM70.5959 39.1641C69.1404 39.1641 67.9591 37.9826 67.9591 36.5273C68.0896 33.0337 73.1027 33.0347 73.2326 36.5273C73.2326 37.9826 72.0513 39.1641 70.5959 39.1641ZM75.5956 23.7818L74.2801 25.0973C73.4897 25.8878 73.0547 26.938 73.0547 28.0543C72.9274 31.5441 67.9113 31.5508 67.7812 28.0543C67.8067 24.5355 69.3817 22.3474 71.8659 20.0538C73.15 18.7949 72.2204 16.5531 70.4236 16.5702C69.5846 16.5702 68.8445 17.0647 68.5271 17.8302C67.9693 19.1753 66.4272 19.8142 65.0816 19.2561C63.7365 18.6986 63.0979 17.1561 63.6557 15.8106C66.1013 9.82371 74.7388 9.83162 77.1803 15.8108C78.317 18.5532 77.6948 21.6819 75.5956 23.7818Z" fill="white"/>
<path d="M28.0547 51.0234C15.7 51.0234 5.64844 61.0748 5.64844 73.4296H50.4611C50.4609 61.0748 40.4095 51.0234 28.0547 51.0234Z" fill="white"/>
<path d="M87.3633 78.7031H2.63672C1.18055 78.7031 0 79.8837 0 81.3398V87.3633C0 88.8195 1.18055 90.0001 2.63672 90.0001H87.3633C88.8195 90.0001 90 88.8195 90 87.3633V81.3398C90 79.8837 88.8195 78.7031 87.3633 78.7031Z" fill="white"/>
<path d="M42.2694 36.8086C42.2694 28.9706 35.8926 22.5938 28.0547 22.5938C9.22269 23.3085 9.22779 50.3116 28.0548 51.0235C35.8926 51.0235 42.2694 44.6467 42.2694 36.8086ZM32.7431 41.8945C31.713 42.9244 30.0436 42.9239 29.0143 41.8945C28.6688 41.5491 28.2647 41.4976 28.0545 41.4976C27.8444 41.4976 27.4401 41.5491 27.0947 41.8945C26.0652 42.9241 24.3956 42.9241 23.3659 41.8945C20.7364 38.886 25.2394 36.0981 28.0545 36.2242C30.8691 36.0976 35.3731 38.8865 32.7431 41.8945Z" fill="white"/>
</svg>
