<svg width="25" height="25" viewBox="0 0 25 25" fill="none" xmlns="http://www.w3.org/2000/svg">
<g clip-path="url(#clip0)">
<path d="M20.1172 11.8239L23.5697 8.37502C24.4921 7.45358 25 6.2283 25 4.9252C25 3.62191 24.4921 2.39663 23.5697 1.47519H23.5695C21.666 -0.426626 18.5684 -0.426626 16.6647 1.47519C15.7423 2.39663 15.2344 3.62191 15.2344 4.9252C15.2344 6.2283 15.7423 7.45358 16.6647 8.37502L20.1172 11.8239ZM20.1172 4.09932C20.5217 4.09932 20.8496 4.42719 20.8496 4.83174C20.8496 5.2361 20.5217 5.56417 20.1172 5.56417C19.7126 5.56417 19.3848 5.2361 19.3848 4.83174C19.3848 4.42719 19.7126 4.09932 20.1172 4.09932Z" fill="white"/>
<path d="M21.1426 17.283H15.0879C13.7686 17.283 12.6953 16.2097 12.6953 14.8904C12.6953 13.5711 13.7686 12.4978 15.0879 12.4978H18.7189L17.2525 11.033H15.0879C12.9608 11.033 11.2304 12.7633 11.2304 14.8904C11.2304 17.0173 12.9608 18.7478 15.0879 18.7478H21.1426C22.4619 18.7478 23.5351 19.8211 23.5351 21.1404V21.1892C23.5351 22.5085 22.4619 23.5818 21.1426 23.5818H7.74744L6.28107 25.0466H21.1426C23.2696 25.0466 25 23.3161 25 21.1892V21.1404C25 19.0133 23.2696 17.283 21.1426 17.283Z" fill="white"/>
<path d="M9.76562 17.474C9.76562 16.1707 9.2577 14.9455 8.3353 14.024H8.33511C6.43158 12.1222 3.33405 12.1222 1.43032 14.024C0.507927 14.9455 0 16.1707 0 17.474C0 18.7771 0.507927 20.0024 1.43032 20.9239L4.88281 24.3727L8.3353 20.9239C9.2577 20.0024 9.76562 18.7771 9.76562 17.474ZM4.88281 18.113C4.47826 18.113 4.15039 17.7849 4.15039 17.3806C4.15039 16.976 4.47826 16.6481 4.88281 16.6481C5.28736 16.6481 5.61523 16.976 5.61523 17.3806C5.61523 17.7849 5.28736 18.113 4.88281 18.113Z" fill="white"/>
</g>
<defs>
<clipPath id="clip0">
<rect width="25" height="25" fill="white"/>
</clipPath>
</defs>
</svg>
