<svg width="781" height="751" viewBox="0 0 781 751" fill="none" xmlns="http://www.w3.org/2000/svg">
<path d="M666.916 0.581543C604.009 0.581543 552.832 51.7584 552.832 114.665C552.832 140.201 568.849 178.686 601.812 232.304C613.421 251.173 624.922 268.318 633.617 280.872H289.26C221.761 280.872 166.862 335.786 166.862 403.285C166.862 470.783 221.761 525.682 289.26 525.682H445.994C481.307 525.682 510.045 554.42 510.045 589.748C510.045 625.076 481.307 653.815 445.994 653.815H148.71C139.65 622.087 110.408 598.779 75.8119 598.779C34.001 598.779 0 632.795 0 674.606C0 716.402 34.001 750.418 75.8119 750.418C108.867 750.418 137.041 729.139 147.383 699.577H445.994C506.552 699.577 555.807 650.306 555.807 589.748C555.807 529.19 506.552 479.92 445.994 479.92H289.26C247.007 479.92 212.624 445.538 212.624 403.285C212.624 361.016 247.007 326.634 289.26 326.634H666.901L666.916 326.649L685.297 301.816C686.258 300.519 708.956 269.798 732.004 232.304C764.968 178.686 781 140.201 781 114.665C781 51.7584 729.823 0.581543 666.916 0.581543ZM666.916 131.262C654.133 131.262 643.776 120.904 643.776 108.122C643.776 95.3388 654.133 84.9814 666.916 84.9814C679.684 84.9814 690.041 95.3388 690.041 108.122C690.041 120.904 679.684 131.262 666.916 131.262Z" fill="#32363C"/>
</svg>
