<svg width="110" height="90" viewBox="0 0 110 90" fill="none" xmlns="http://www.w3.org/2000/svg">
<path d="M66.3803 15.4473C71.4664 18.5477 75.0328 23.7943 75.6822 29.8843C77.7564 30.8266 80.0585 31.3685 82.4993 31.3685C91.41 31.3685 98.6321 24.3468 98.6321 15.6849C98.6321 7.02164 91.41 0 82.4993 0C73.6738 0.00266932 66.5148 6.89885 66.3803 15.4473ZM55.8113 47.5619C64.722 47.5619 71.9441 40.5389 71.9441 31.877C71.9441 23.215 64.7206 16.1934 55.8113 16.1934C46.902 16.1934 39.6758 23.2164 39.6758 31.8783C39.6758 40.5402 46.902 47.5619 55.8113 47.5619ZM62.6546 48.6309H48.9653C37.5754 48.6309 28.3092 57.6412 28.3092 68.7149V84.991L28.3518 85.246L29.5049 85.597C40.3745 88.8989 49.8178 90 57.5904 90C72.7719 90 81.5713 85.7918 82.1136 85.5236L83.1912 84.9937H83.3065V68.7149C83.3106 57.6412 74.0444 48.6309 62.6546 48.6309ZM89.3453 32.4389H75.7618C75.6149 37.7228 73.2949 42.4808 69.6255 45.9029C79.7497 48.8298 87.1571 57.9575 87.1571 68.7389V73.7545C100.569 73.2767 108.298 69.5811 108.807 69.3328L109.885 68.8016H110V52.5201C110 41.4478 100.734 32.4389 89.3453 32.4389ZM27.5034 31.3711C30.6594 31.3711 33.5958 30.4756 36.0832 28.9501C36.874 23.9358 39.6387 19.5541 43.5882 16.5698C43.6046 16.2762 43.6335 15.9852 43.6335 15.6889C43.6335 7.02564 36.41 0.00400368 27.5034 0.00400368C18.5914 0.00400368 11.3706 7.02564 11.3706 15.6889C11.3706 24.3482 18.5914 31.3711 27.5034 31.3711ZM41.9916 45.9029C38.3401 42.4982 36.0283 37.7655 35.8595 32.5136C35.3557 32.4776 34.8574 32.4389 34.3439 32.4389H20.6561C9.26619 32.4389 0 41.4478 0 52.5201V68.799L0.0425558 69.0499L1.19568 69.4036C9.91551 72.0502 17.6977 73.2701 24.4573 73.6544V68.7389C24.46 57.9575 31.8647 48.8325 41.9916 45.9029Z" fill="white"/>
</svg>
