<svg width="150" height="150" viewBox="0 0 150 150" fill="none" xmlns="http://www.w3.org/2000/svg">
<path d="M146.711 47.9938C144.431 45.7209 141.453 44.5607 138.459 44.5073C139.176 40.6056 138.028 36.4264 135.008 33.4153C132.778 31.1919 129.855 29.9119 126.725 29.7736C126.964 28.8006 127.089 27.7925 127.089 26.7648C127.089 23.4205 125.783 20.2761 123.411 17.9114C120.611 15.1186 116.806 13.9268 113.145 14.3292C113.464 10.5813 112.191 6.723 109.322 3.86135C104.156 -1.28904 95.7512 -1.28845 90.5862 3.86135L77.7111 16.7002C74.9354 15.1547 71.7982 14.328 68.5316 14.328C63.4903 14.328 58.7509 16.2856 55.1861 19.8403L43.3995 31.5931C38.7732 36.2063 36.8862 42.7569 38.3512 49.1153L39.9858 56.2089L1.07312 95.0119C-0.0745023 96.1562 -0.0745023 98.0118 1.07312 99.1565C1.64707 99.7285 2.39912 100.015 3.15117 100.015C3.90322 100.015 4.65527 99.7285 5.22923 99.1565L45.2921 59.2068C46.008 58.4929 46.3049 57.4623 46.0783 56.4782L44.0796 47.8033C43.0704 43.4251 44.3699 38.9144 47.5556 35.738L59.3422 23.9852C61.7967 21.5373 65.06 20.1896 68.5316 20.1896C72.003 20.1896 75.2663 21.5376 77.7208 23.9852L87.7123 33.9484C89.1044 35.3363 89.8712 37.1819 89.8712 39.1448C89.8712 41.1076 89.1047 42.9533 87.7123 44.3412C86.3205 45.7294 84.4696 46.4939 82.5008 46.4939C80.5324 46.4939 78.6815 45.7296 77.2897 44.3412L71.4725 38.5405C70.3246 37.3964 68.4643 37.3964 67.3161 38.5405C66.1685 39.6849 66.1685 41.5405 67.3161 42.6851C75.2446 50.5908 75.2446 63.4543 67.3161 71.3599L67.1131 71.5624C65.9654 72.7068 65.9654 74.5624 67.1131 75.7071C67.687 76.2791 68.4391 76.5654 69.1911 76.5654C69.9432 76.5654 70.6952 76.2791 71.2692 75.7071L71.4723 75.5046C77.9277 69.0674 80.3005 60.081 78.6004 51.7653C80.5121 52.3494 82.5302 52.4942 84.4949 52.1982C85.035 53.1228 85.691 53.9785 86.4665 54.7521C88.8379 57.1168 91.9913 58.4191 95.3451 58.4191C95.7068 58.4191 96.066 58.4009 96.4224 58.371C96.3913 58.7315 96.3731 59.0946 96.3731 59.4609C96.3731 62.7943 97.675 65.9285 100.039 68.2858C102.479 70.719 105.683 71.9352 108.889 71.9352C109.173 71.9352 109.458 71.922 109.742 71.903C109.711 72.2546 109.693 72.6089 109.693 72.9662C109.693 76.1557 110.938 79.1545 113.2 81.4099C114.774 82.9789 116.681 84.0169 118.696 84.5285L110.718 92.484C105.418 97.7695 97.8598 100.078 90.4989 98.6621L82.3621 97.0958C81.4038 96.9108 80.4169 97.213 79.7269 97.9008L63.5124 114.069C62.3648 115.214 62.3648 117.069 63.5124 118.214C64.0863 118.786 64.8384 119.072 65.5904 119.072C66.3425 119.072 67.0945 118.786 67.6685 118.214L82.7797 103.146L89.3845 104.417C98.6624 106.204 108.191 103.291 114.873 96.6286L146.71 64.882C151.38 60.2255 151.38 52.6498 146.711 47.9938ZM82.3762 20.3382L94.7429 8.00627C97.6162 5.1411 102.292 5.14081 105.166 8.00656C106.558 9.39446 107.324 11.2398 107.324 13.203C107.324 15.1658 106.558 17.0115 105.166 18.3993L92.7539 30.7761C92.4768 30.4397 92.1817 30.1153 91.869 29.8035L82.3762 20.3382ZM90.6235 50.6075C90.4246 50.4091 90.2412 50.1999 90.071 49.9824C90.7026 49.5434 91.3056 49.047 91.8684 48.4855C94.3708 45.9905 95.7489 42.6731 95.7489 39.1445C95.7489 38.2009 95.6472 37.2731 95.455 36.3713L109.811 22.0558C112.414 19.4599 116.651 19.4593 119.256 22.0558C120.517 23.3135 121.211 24.9857 121.211 26.7645C121.211 28.543 120.517 30.2152 119.255 31.473L100.068 50.6066C98.8062 51.8644 97.1292 52.5569 95.3457 52.5569C93.5615 52.5577 91.8846 51.865 90.6235 50.6075ZM104.195 64.1409C102.941 62.8905 102.251 61.2286 102.251 59.4603C102.251 57.692 102.942 56.0301 104.195 54.78L121.465 37.5597C122.718 36.3092 124.385 35.6208 126.158 35.6208C127.931 35.6208 129.598 36.3095 130.852 37.5597C133.44 40.1406 133.44 44.3394 130.852 46.92L113.583 64.1406C110.995 66.7212 106.784 66.7224 104.195 64.1409ZM142.554 60.7368L125.98 77.2646C123.602 79.6351 119.734 79.6357 117.357 77.2646C117.357 77.2646 117.357 77.2646 117.356 77.2646C116.205 76.1165 115.571 74.5897 115.571 72.9656C115.571 71.3415 116.205 69.8147 117.357 68.6665L133.932 52.1381C135.121 50.9527 136.682 50.3602 138.243 50.3602C139.804 50.3602 141.366 50.9527 142.554 52.1381C144.932 54.5089 144.932 58.3663 142.554 60.7368Z" fill="#9AA1AD"/>
<path d="M44.818 132.71L32.4969 144.997C31.3493 146.141 31.3493 147.996 32.4969 149.141C33.0709 149.713 33.8229 149.999 34.575 149.999C35.327 149.999 36.0791 149.713 36.6531 149.141L48.9742 136.855C50.1218 135.711 50.1218 133.855 48.9742 132.71C47.8262 131.566 45.966 131.566 44.818 132.71Z" fill="#9AA1AD"/>
<path d="M56.2396 122.535C55.4667 122.535 54.7085 122.848 54.1619 123.394C53.6155 123.939 53.3008 124.695 53.3008 125.465C53.3008 126.236 53.6152 126.992 54.1619 127.537C54.7085 128.082 55.4667 128.396 56.2396 128.396C57.0125 128.396 57.7708 128.082 58.3174 127.537C58.8637 126.992 59.1785 126.236 59.1785 125.465C59.1785 124.695 58.864 123.939 58.3174 123.394C57.7708 122.848 57.0125 122.535 56.2396 122.535Z" fill="#9AA1AD"/>
</svg>
