<svg width="182" height="232" viewBox="0 0 182 232" fill="none" xmlns="http://www.w3.org/2000/svg">
<path d="M90.9973 0.5C115.057 0.528384 138.123 10.0986 155.136 27.1114C172.149 44.1242 181.719 67.1903 181.747 91.25C181.776 110.912 175.354 130.04 163.465 145.7C163.465 145.7 160.99 148.959 160.586 149.429L90.9973 231.5L21.3756 149.388C21.0126 148.951 18.5293 145.7 18.5293 145.7L18.5211 145.675C6.63857 130.022 0.219116 110.903 0.247314 91.25C0.275711 67.1903 9.84596 44.1242 26.8587 27.1114C43.8715 10.0986 66.9376 0.528384 90.9973 0.5ZM90.9973 124.25C97.5241 124.25 103.904 122.315 109.331 118.688C114.758 115.062 118.988 109.909 121.485 103.879C123.983 97.8486 124.637 91.2134 123.363 84.812C122.09 78.4106 118.947 72.5306 114.332 67.9155C109.717 63.3003 103.837 60.1574 97.4353 58.8841C91.0339 57.6108 84.3987 58.2643 78.3688 60.762C72.3388 63.2597 67.1849 67.4894 63.5588 72.9162C59.9327 78.343 57.9973 84.7232 57.9973 91.25C58.0082 99.9988 61.4885 108.386 67.6749 114.572C73.8612 120.759 82.2485 124.239 90.9973 124.25Z" fill="#32363C" fill-opacity="0.6"/>
</svg>
