<svg width="150" height="150" viewBox="0 0 150 150" fill="none" xmlns="http://www.w3.org/2000/svg">
<path d="M4.39551 43.9448H22.2666C24.6956 43.9448 26.6611 41.9793 26.6611 39.5503C26.6611 37.1213 24.6956 35.1558 22.2666 35.1558H8.79004V4.39404C8.79004 1.96504 6.82451 -0.000488281 4.39551 -0.000488281C1.9665 -0.000488281 0.000976562 1.96504 0.000976562 4.39404V39.5503C0.000976562 41.9793 1.9665 43.9448 4.39551 43.9448Z" fill="#9AA1AD"/>
<path d="M39.8442 43.9448H57.4224C59.8514 43.9448 61.8169 41.9793 61.8169 39.5503C61.8169 37.1213 59.8514 35.1558 57.4224 35.1558H44.2388V26.3667H48.6333C51.0623 26.3667 53.0278 24.4012 53.0278 21.9722C53.0278 19.5432 51.0623 17.5776 48.6333 17.5776H44.2388V8.78857H57.4224C59.8514 8.78857 61.8169 6.82305 61.8169 4.39404C61.8169 1.96504 59.8514 -0.000488281 57.4224 -0.000488281H39.8442C37.4152 -0.000488281 35.4497 1.96504 35.4497 4.39404V39.5503C35.4497 41.9793 37.4152 43.9448 39.8442 43.9448Z" fill="#9AA1AD"/>
<path d="M75.0005 8.78857H79.395V39.5503C79.395 41.9793 81.3605 43.9448 83.7896 43.9448C86.2186 43.9448 88.1841 41.9793 88.1841 39.5503V8.78857H92.5786C95.0076 8.78857 96.9731 6.82305 96.9731 4.39404C96.9731 1.96504 95.0076 -0.000488281 92.5786 -0.000488281H75.0005C72.5715 -0.000488281 70.606 1.96504 70.606 4.39404C70.606 6.82305 72.5715 8.78857 75.0005 8.78857Z" fill="#9AA1AD"/>
<path d="M136.523 26.3667C138.948 26.3667 140.918 28.3366 140.918 30.7612C140.918 34.3618 135.957 36.4088 133.421 33.8726C131.708 32.1517 128.927 32.1517 127.206 33.8641C125.486 35.5765 125.486 38.3617 127.198 40.0782C129.683 42.5717 132.996 43.9448 136.523 43.9448C143.793 43.9448 149.707 38.031 149.707 30.7612C149.707 23.4915 143.793 17.5776 136.523 17.5776C134.099 17.5776 132.129 15.6077 132.129 13.1831C132.129 9.58252 137.111 7.53965 139.626 10.0718C141.343 11.7927 144.124 11.7927 145.84 10.0803C147.561 8.36787 147.561 5.58262 145.849 3.86611C143.364 1.37295 140.051 -0.000488281 136.523 -0.000488281C129.254 -0.000488281 123.34 5.91338 123.34 13.1831C123.34 20.4528 129.253 26.3667 136.523 26.3667Z" fill="#9AA1AD"/>
<path d="M110.156 17.5776C112.585 17.5776 114.551 15.6121 114.551 13.1831V4.39404C114.551 1.96504 112.585 -0.000488281 110.156 -0.000488281C107.727 -0.000488281 105.762 1.96504 105.762 4.39404V13.1831C105.762 15.6121 107.727 17.5776 110.156 17.5776Z" fill="#9AA1AD"/>
<path d="M84.082 88.4757C81.6574 88.4757 79.6875 90.4456 79.6875 92.8702V110.448C79.6875 112.873 81.6574 114.843 84.082 114.843C86.5066 114.843 88.4766 112.873 88.4766 110.448V92.8702C88.4766 90.4456 86.5066 88.4757 84.082 88.4757Z" fill="#9AA1AD"/>
<path d="M104.767 54.6075C103.505 53.3501 101.63 52.981 99.9775 53.6548C98.334 54.3327 97.2652 55.9379 97.2652 57.7144V62.109H4.39451C1.96552 62.109 0 64.0745 0 66.5035V136.816C0 139.245 1.96552 141.21 4.39451 141.21H97.2652V145.605C97.2652 147.381 98.3337 148.986 99.9775 149.664C101.597 150.34 103.498 149.98 104.767 148.712L148.712 104.767C150.429 103.05 150.429 100.269 148.712 98.5524L104.767 54.6075ZM62.1094 106.054C62.1094 115.749 54.226 123.632 44.5314 123.632C34.8368 123.632 26.9533 115.749 26.9533 106.054C26.9533 106.054 26.9533 97.1619 26.9533 97.1406C27.0219 87.506 34.8798 79.687 44.5314 79.687C49.2262 79.687 53.638 81.5151 56.9596 84.8368C58.6761 86.5533 58.6761 89.3344 56.9596 91.0509C55.2431 92.7674 52.462 92.7674 50.7455 91.0509C49.0847 89.3901 46.8789 88.476 44.5314 88.476C39.6863 88.476 35.7423 92.42 35.7423 97.2651V106.054C35.7423 110.899 39.6863 114.843 44.5314 114.843C49.3765 114.843 53.3204 110.899 53.3204 106.054H48.9259C46.4969 106.054 44.5314 104.089 44.5314 101.66C44.5314 99.2306 46.4969 97.2651 48.9259 97.2651H57.7149C60.1439 97.2651 62.1094 99.2306 62.1094 101.66V106.054ZM97.2655 110.449C97.2655 117.718 91.3517 123.632 84.082 123.632C76.8123 123.632 70.8985 117.718 70.8985 110.449V92.8705C70.8985 85.6009 76.8123 79.687 84.082 79.687C91.3517 79.687 97.2655 85.6009 97.2655 92.8705V110.449Z" fill="#9AA1AD"/>
</svg>
