<svg width="14" height="18" viewBox="0 0 14 18" fill="none" xmlns="http://www.w3.org/2000/svg">
<path d="M7.00008 0C4.09756 0 1.73609 2.36137 1.73609 5.26398V8.27038C1.73609 8.30454 1.69393 8.36211 1.66082 8.37312C1.37616 8.46804 1.14497 8.5503 0.933348 8.63188C0.680977 8.72918 0.490631 9.00886 0.490631 9.28248V16.1903C0.490631 16.4621 0.679747 16.742 0.930519 16.8414C2.87079 17.6102 4.91288 18 7.00005 18C9.08721 18 11.1293 17.6101 13.0697 16.8413C13.3203 16.7419 13.5094 16.4621 13.5094 16.1903V9.28248C13.5094 9.00886 13.3191 8.72918 13.0666 8.63179C12.8548 8.55021 12.6237 8.46795 12.3392 8.37303C12.3062 8.36202 12.2641 8.30442 12.2641 8.27026V5.26389C12.2639 2.36137 9.9026 0 7.00008 0ZM5.5663 11.3864C5.5663 10.594 6.20822 9.95272 6.99998 9.95272C7.79169 9.95272 8.43361 10.5939 8.43361 11.3864C8.43361 11.9114 8.13751 12.351 7.71678 12.6003V14.9705C7.71678 15.3668 7.39618 15.6874 6.99995 15.6874C6.6037 15.6874 6.28313 15.3668 6.28313 14.9705V12.6003C5.86243 12.351 5.5663 11.9114 5.5663 11.3864ZM10.454 5.26389V7.85786C9.32135 7.61413 8.15931 7.4907 7.00054 7.49061C5.84229 7.49061 4.6805 7.61407 3.54607 7.85758V5.26389C3.54607 3.35935 5.09548 1.80998 6.99998 1.80998C8.90446 1.80995 10.454 3.35935 10.454 5.26389Z" fill="#999999"/>
</svg>
