<svg width="503" height="503" viewBox="0 0 503 503" fill="none" xmlns="http://www.w3.org/2000/svg">
<path d="M223.206 245.213C224.72 244.077 226.592 243.526 228.479 243.66C230.366 243.794 232.142 244.605 233.479 245.942L251.5 263.964L269.52 245.942C270.858 244.605 272.634 243.794 274.521 243.66C276.408 243.526 278.28 244.077 279.794 245.213L306.516 265.254L318.806 256.033C316.092 250.531 313.251 244.932 310.314 239.338C274.108 170.404 256.144 165.047 251.5 165.047C247.852 165.047 239.568 167.699 225.073 185.452C215.273 197.457 204.351 214.313 192.609 235.555C189.049 241.991 185.633 248.442 182.418 254.713L196.484 265.254L223.206 245.213Z" fill="#32363C"/>
<path d="M348.114 453.542C346.641 452.256 339.985 450.392 335.124 449.031C321.691 445.27 304.041 440.323 295.062 426.908C288.625 430.564 278.857 437.923 274.675 450.469C274.016 452.447 272.598 454.082 270.734 455.014C268.869 455.946 266.711 456.1 264.733 455.441C262.756 454.781 261.121 453.364 260.189 451.499C259.256 449.634 259.103 447.476 259.762 445.498C265.981 426.845 280.453 416.768 289.174 412.194C287.952 407.686 286.888 403.071 285.864 398.545C281.64 379.858 277.644 362.207 262.859 352.349C240.258 337.282 240.67 314.153 244.043 304.028C244.696 302.048 246.108 300.407 247.969 299.468C249.83 298.529 251.989 298.368 253.969 299.02C255.949 299.673 257.589 301.085 258.528 302.946C259.467 304.807 259.628 306.966 258.976 308.946C258.38 310.855 253.835 327.44 271.582 339.271C291.594 352.611 296.696 375.173 301.199 395.073C302.732 401.851 304.178 408.246 306.111 414.055C309.98 425.665 326.269 430.225 339.359 433.888C348.155 436.35 355.101 438.294 359.227 442.42C365.875 449.068 371.922 463.543 374.928 471.556H469.354L449.36 391.593L422.497 384.877C420.685 384.424 419.094 383.341 418.008 381.821L380.393 329.163L359.762 324.004L353.52 355.219C353.318 356.226 352.921 357.183 352.352 358.037L336.633 381.615C336.063 382.48 335.328 383.224 334.469 383.803C333.611 384.383 332.647 384.787 331.632 384.993C330.617 385.199 329.571 385.202 328.555 385.002C327.539 384.803 326.572 384.404 325.71 383.829C324.849 383.255 324.109 382.516 323.534 381.654C322.959 380.793 322.56 379.827 322.36 378.811C322.159 377.795 322.162 376.749 322.367 375.734C322.572 374.719 322.976 373.754 323.555 372.895L338.411 350.611L345.502 315.155C343.072 309.226 335.736 291.636 325.761 270.47L311.231 281.365C309.871 282.386 308.216 282.937 306.516 282.937C304.815 282.937 303.16 282.386 301.8 281.365L275.816 261.877L257.058 280.635C256.328 281.365 255.461 281.944 254.508 282.339C253.554 282.734 252.532 282.937 251.5 282.937C250.468 282.937 249.446 282.734 248.492 282.339C247.539 281.944 246.672 281.365 245.942 280.635L227.184 261.877L201.2 281.365C199.84 282.386 198.185 282.937 196.484 282.937C194.784 282.937 193.129 282.386 191.769 281.365L175.264 268.987C164.097 291.773 156.683 309.314 156.575 309.569C156.102 310.693 155.373 311.692 154.447 312.486C153.52 313.28 152.422 313.847 151.238 314.143L123.308 321.126L94.9393 377.852L100.736 395.254L113.542 401.658C114.556 402.165 115.449 402.885 116.158 403.77C116.867 404.654 117.377 405.681 117.652 406.781L125.511 438.219C125.77 439.223 125.827 440.268 125.68 441.294C125.533 442.321 125.184 443.308 124.654 444.199C124.124 445.09 123.422 445.867 122.59 446.486C121.758 447.104 120.812 447.552 119.806 447.804C118.8 448.055 117.755 448.105 116.729 447.951C115.704 447.796 114.72 447.441 113.832 446.904C112.945 446.367 112.173 445.66 111.56 444.824C110.948 443.987 110.506 443.038 110.262 442.03L103.279 414.1L90.7935 407.857C88.9291 406.925 87.5113 405.291 86.852 403.313L82.2464 389.497L68.8432 398.437L28.9589 471.562H358.033C355.015 464.302 351.242 456.67 348.114 453.542Z" fill="#32363C"/>
<path d="M361.531 39.2969C357.439 39.2969 355.426 40.799 351.265 44.1982C345.673 48.7635 338.015 55.0156 322.234 55.0156C309.971 55.0156 302.617 49.8167 295.507 44.7886C287.647 39.2291 278.841 33.0153 259.359 31.6959V23.5781C259.359 21.4937 258.531 19.4946 257.057 18.0207C255.584 16.5468 253.584 15.7188 251.5 15.7188C249.416 15.7188 247.416 16.5468 245.943 18.0207C244.469 19.4946 243.641 21.4937 243.641 23.5781V150.595C246.18 149.773 248.831 149.345 251.5 149.328C254.174 149.346 256.828 149.794 259.359 150.654V94.2496C266.12 89.0768 274.426 86.3305 282.937 86.4531C294.376 86.4531 301.194 89.6283 307.209 92.4302C314.49 95.8205 320.242 98.4986 336.047 94.5473C349.087 91.2866 353.375 83.3939 359.311 72.4693C363.803 64.2052 369.152 54.3594 379.528 46.3369C374.303 42.755 367.587 39.2969 361.531 39.2969Z" fill="#32363C"/>
</svg>
