<svg width="144" height="144" viewBox="0 0 144 144" fill="none" xmlns="http://www.w3.org/2000/svg">
<path d="M63.9001 70.2C64.3334 69.875 64.8693 69.7172 65.4096 69.7556C65.9498 69.794 66.4581 70.026 66.8411 70.409L72.0001 75.5682L77.159 70.409C77.542 70.026 78.0503 69.794 78.5906 69.7556C79.1308 69.7172 79.6668 69.875 80.1001 70.2L87.7501 75.9375L91.2685 73.2977C90.4917 71.7227 89.6783 70.1196 88.8374 68.5181C78.4725 48.7837 73.3295 47.25 72.0001 47.25C70.9558 47.25 68.5843 48.0094 64.4345 53.0916C61.629 56.5284 58.502 61.3541 55.1405 67.4353C54.1216 69.2778 53.1437 71.1245 52.2231 72.9197L56.2501 75.9375L63.9001 70.2Z" fill="#32363C"/>
<path d="M99.6591 129.841C99.2372 129.473 97.3317 128.939 95.9401 128.55C92.0946 127.473 87.0417 126.057 84.471 122.216C82.6283 123.263 79.8321 125.37 78.6348 128.961C78.4461 129.528 78.0402 129.996 77.5064 130.262C76.9726 130.529 76.3547 130.573 75.7886 130.385C75.2224 130.196 74.7544 129.79 74.4875 129.256C74.2206 128.722 74.1767 128.104 74.3654 127.538C76.1457 122.198 80.2888 119.313 82.7855 118.004C82.4356 116.713 82.131 115.392 81.838 114.096C80.6286 108.747 79.4847 103.693 75.2519 100.871C68.7818 96.5578 68.8996 89.9363 69.8654 87.0377C70.0521 86.4708 70.4564 86.0013 70.9893 85.7325C71.5222 85.4636 72.14 85.4175 72.7069 85.6042C73.2738 85.7909 73.7433 86.1952 74.0122 86.728C74.281 87.2609 74.3271 87.8788 74.1404 88.4457C73.9697 88.9921 72.6687 93.7402 77.7492 97.1273C83.4782 100.946 84.939 107.405 86.228 113.102C86.667 115.043 87.081 116.874 87.6343 118.537C88.7418 121.86 93.4052 123.166 97.1526 124.214C99.6706 124.919 101.659 125.476 102.841 126.657C104.744 128.56 106.475 132.704 107.335 134.998H134.368L128.644 112.106L120.954 110.183C120.435 110.054 119.979 109.744 119.668 109.309L108.9 94.2335L102.994 92.7567L101.207 101.693C101.149 101.981 101.035 102.255 100.872 102.5L96.3721 109.25C96.209 109.497 95.9985 109.71 95.7528 109.876C95.5071 110.042 95.231 110.158 94.9405 110.217C94.6499 110.276 94.3505 110.276 94.0596 110.219C93.7687 110.162 93.4919 110.048 93.2453 109.884C92.9986 109.719 92.7868 109.507 92.6222 109.261C92.4576 109.014 92.3433 108.738 92.286 108.447C92.2286 108.156 92.2293 107.857 92.288 107.566C92.3468 107.275 92.4623 106.999 92.6281 106.753L96.8812 100.374L98.9112 90.2232C98.2154 88.5258 96.1153 83.4903 93.2598 77.4308L89.1001 80.5499C88.7107 80.842 88.237 80.9999 87.7501 80.9999C87.2633 80.9999 86.7896 80.842 86.4001 80.5499L78.9613 74.9707L73.5912 80.3409C73.3822 80.5498 73.1342 80.7156 72.8612 80.8287C72.5882 80.9417 72.2956 80.9999 72.0001 80.9999C71.7046 80.9999 71.412 80.9417 71.1391 80.8287C70.8661 80.7156 70.618 80.5498 70.4091 80.3409L65.0389 74.9707L57.6001 80.5499C57.2107 80.842 56.737 80.9999 56.2501 80.9999C55.7633 80.9999 55.2896 80.842 54.9001 80.5499L50.1751 77.0061C46.9781 83.5294 44.8556 88.5511 44.8249 88.624C44.6893 88.9459 44.4807 89.2318 44.2154 89.4591C43.9502 89.6864 43.6357 89.8488 43.2969 89.9335L35.3009 91.9326L27.1796 108.172L28.8389 113.154L32.5053 114.987C32.7956 115.133 33.051 115.339 33.2541 115.592C33.4572 115.845 33.6031 116.139 33.6818 116.454L35.9318 125.454C36.0058 125.742 36.0223 126.041 35.9801 126.335C35.938 126.629 35.8382 126.911 35.6864 127.166C35.5345 127.421 35.3338 127.644 35.0956 127.821C34.8574 127.998 34.5865 128.126 34.2985 128.198C34.0106 128.27 33.7112 128.285 33.4177 128.24C33.1242 128.196 32.8423 128.094 32.5883 127.941C32.3344 127.787 32.1133 127.585 31.9379 127.345C31.7624 127.106 31.6361 126.834 31.5662 126.545L29.5671 118.55L25.9927 116.762C25.459 116.495 25.0531 116.027 24.8643 115.461L23.5458 111.506L19.7087 114.066L8.29053 135H102.499C101.635 132.921 100.555 130.736 99.6591 129.841Z" fill="#32363C"/>
<path d="M103.5 11.25C102.329 11.25 101.752 11.68 100.561 12.6532C98.9601 13.9601 96.7677 15.75 92.25 15.75C88.7392 15.75 86.634 14.2616 84.5983 12.8222C82.3483 11.2306 79.8272 9.45169 74.25 9.07397V6.75C74.25 6.15326 74.0129 5.58097 73.591 5.15901C73.169 4.73705 72.5967 4.5 72 4.5C71.4033 4.5 70.831 4.73705 70.409 5.15901C69.9871 5.58097 69.75 6.15326 69.75 6.75V43.1128C70.477 42.8773 71.2358 42.7549 72 42.75C72.7655 42.7552 73.5252 42.8834 74.25 43.1297V26.982C76.1855 25.5011 78.5632 24.7149 81 24.75C84.2746 24.75 86.2265 25.659 87.9486 26.4611C90.0329 27.4317 91.6796 28.1984 96.2044 27.0672C99.9374 26.1337 101.165 23.8742 102.864 20.7467C104.15 18.3808 105.682 15.5621 108.652 13.2654C107.156 12.24 105.234 11.25 103.5 11.25Z" fill="#32363C"/>
</svg>
