<svg width="25" height="25" viewBox="0 0 25 25" fill="none" xmlns="http://www.w3.org/2000/svg">
<path d="M11.0938 12.1875C11.169 12.1311 11.262 12.1037 11.3558 12.1104C11.4496 12.117 11.5379 12.1573 11.6044 12.2238L12.5 13.1195L13.3957 12.2238C13.4622 12.1573 13.5504 12.117 13.6442 12.1104C13.738 12.1037 13.831 12.1311 13.9063 12.1875L15.2344 13.1836L15.8452 12.7253C15.7104 12.4519 15.5692 12.1735 15.4232 11.8955C13.6237 8.46938 12.7308 8.20312 12.5 8.20312C12.3187 8.20312 11.907 8.33496 11.1865 9.21729C10.6995 9.81397 10.1566 10.6518 9.57302 11.7075C9.39612 12.0274 9.22634 12.348 9.06653 12.6597L9.76565 13.1836L11.0938 12.1875Z" fill="white"/>
<path d="M17.3019 22.5419C17.2287 22.478 16.8979 22.3854 16.6563 22.3178C15.9887 22.1309 15.1114 21.885 14.6651 21.2182C14.3452 21.3999 13.8597 21.7657 13.6519 22.3893C13.6191 22.4875 13.5487 22.5688 13.456 22.6151C13.3633 22.6615 13.256 22.6691 13.1577 22.6363C13.0595 22.6036 12.9782 22.5331 12.9319 22.4404C12.8855 22.3478 12.8779 22.2405 12.9107 22.1422C13.2198 21.2151 13.939 20.7142 14.3725 20.4869C14.3117 20.2628 14.2589 20.0334 14.208 19.8085C13.998 18.8797 13.7994 18.0024 13.0646 17.5125C11.9413 16.7636 11.9617 15.6141 12.1294 15.1108C12.1618 15.0124 12.232 14.9309 12.3245 14.8842C12.417 14.8376 12.5243 14.8295 12.6227 14.862C12.7212 14.8944 12.8027 14.9646 12.8493 15.0571C12.896 15.1496 12.904 15.2569 12.8716 15.3553C12.842 15.4501 12.6161 16.2745 13.4981 16.8625C14.4928 17.5255 14.7464 18.6469 14.9701 19.6359C15.0464 19.9729 15.1182 20.2907 15.2143 20.5794C15.4066 21.1564 16.2162 21.3831 16.8668 21.5651C17.3039 21.6875 17.6492 21.7841 17.8543 21.9892C18.1846 22.3196 18.4852 23.039 18.6346 23.4373H23.3278L22.334 19.463L20.9989 19.1292C20.9088 19.1067 20.8297 19.0528 20.7758 18.9773L18.9062 16.3601L17.8808 16.1037L17.5706 17.6551C17.5606 17.7052 17.5408 17.7528 17.5125 17.7952L16.7313 18.9671C16.703 19.0101 16.6664 19.047 16.6238 19.0758C16.5811 19.1046 16.5332 19.1247 16.4827 19.135C16.4323 19.1452 16.3803 19.1453 16.3298 19.1354C16.2793 19.1255 16.2312 19.1057 16.1884 19.0771C16.1456 19.0486 16.1088 19.0118 16.0803 18.969C16.0517 18.9262 16.0318 18.8782 16.0219 18.8277C16.0119 18.7772 16.012 18.7252 16.0222 18.6748C16.0324 18.6243 16.0525 18.5764 16.0813 18.5337L16.8197 17.4261L17.1721 15.6639C17.0513 15.3692 16.6867 14.495 16.1909 13.443L15.4688 13.9845C15.4012 14.0352 15.3189 14.0626 15.2344 14.0626C15.1499 14.0626 15.0676 14.0352 15 13.9845L13.7086 13.0159L12.7762 13.9482C12.74 13.9845 12.6969 14.0132 12.6495 14.0329C12.6021 14.0525 12.5513 14.0626 12.5 14.0626C12.4487 14.0626 12.3979 14.0525 12.3505 14.0329C12.3031 14.0132 12.2601 13.9845 12.2238 13.9482L11.2915 13.0159L10 13.9845C9.93241 14.0352 9.85017 14.0626 9.76565 14.0626C9.68113 14.0626 9.59889 14.0352 9.53128 13.9845L8.71096 13.3692C8.15593 14.5018 7.78743 15.3736 7.78211 15.3862C7.75857 15.4421 7.72234 15.4918 7.6763 15.5312C7.63025 15.5707 7.57565 15.5989 7.51682 15.6136L6.12864 15.9606L4.71868 18.78L5.00676 19.645L5.64329 19.9632C5.69368 19.9884 5.73803 20.0242 5.77329 20.0682C5.80854 20.1121 5.83387 20.1632 5.84754 20.2179L6.23816 21.7804C6.25102 21.8303 6.25387 21.8822 6.24656 21.9332C6.23924 21.9843 6.22191 22.0333 6.19555 22.0776C6.1692 22.1219 6.13434 22.1605 6.09299 22.1913C6.05164 22.222 6.00461 22.2443 5.95461 22.2568C5.90462 22.2693 5.85264 22.2718 5.80169 22.2641C5.75073 22.2564 5.70179 22.2387 5.6577 22.212C5.61361 22.1854 5.57523 22.1502 5.54477 22.1087C5.51432 22.0671 5.49239 22.0199 5.48025 21.9698L5.13318 20.5816L4.51262 20.2713C4.41996 20.225 4.3495 20.1438 4.31672 20.0455L4.08782 19.3588L3.42166 19.8032L1.43933 23.4376H17.7949C17.6449 23.0768 17.4574 22.6974 17.3019 22.5419Z" fill="white"/>
<path d="M17.9687 1.95312C17.7654 1.95312 17.6653 2.02778 17.4585 2.19673C17.1806 2.42363 16.8 2.73438 16.0156 2.73438C15.4061 2.73438 15.0406 2.47598 14.6872 2.22607C14.2966 1.94976 13.8589 1.64092 12.8906 1.57534V1.17188C12.8906 1.06827 12.8495 0.968918 12.7762 0.895661C12.703 0.822405 12.6036 0.78125 12.5 0.78125C12.3964 0.78125 12.297 0.822405 12.2238 0.895661C12.1505 0.968918 12.1094 1.06827 12.1094 1.17188V7.48486C12.2356 7.44398 12.3673 7.42273 12.5 7.42188C12.6329 7.42277 12.7648 7.44503 12.8906 7.48779V4.68437C13.2267 4.42728 13.6394 4.29078 14.0625 4.29688C14.631 4.29688 14.9699 4.45469 15.2688 4.59395C15.6307 4.76245 15.9166 4.89556 16.7021 4.69917C17.3502 4.53711 17.5634 4.14482 17.8584 3.60186C18.0816 3.19111 18.3475 2.70176 18.8632 2.30303C18.6035 2.125 18.2697 1.95312 17.9687 1.95312Z" fill="white"/>
</svg>
