<svg width="10" height="16" viewBox="0 0 10 16" fill="#ffffff" xmlns="http://www.w3.org/2000/svg">
<path d="M5 13C4.86739 13 4.74021 12.9473 4.64645 12.8536C4.55268 12.7598 4.5 12.6326 4.5 12.5V10.5C4.5 10.3674 4.55268 10.2402 4.64645 10.1464C4.74021 10.0527 4.86739 10 5 10C5.13261 10 5.25979 10.0527 5.35355 10.1464C5.44732 10.2402 5.5 10.3674 5.5 10.5V12.5C5.5 12.6326 5.44732 12.7598 5.35355 12.8536C5.25979 12.9473 5.13261 13 5 13ZM1 5C1 3.93913 1.42143 2.92172 2.17157 2.17157C2.92172 1.42143 3.93913 1 5 1C6.06087 1 7.07828 1.42143 7.82843 2.17157C8.57857 2.92172 9 3.93913 9 5L9 11C9 12.0609 8.57857 13.0783 7.82843 13.8284C7.07828 14.5786 6.06087 15 5 15C3.93913 15 2.92172 14.5786 2.17157 13.8284C1.42143 13.0783 1 12.0609 1 11L1 5ZM5 16C6.32608 16 7.59785 15.4732 8.53553 14.5355C9.47322 13.5979 10 12.3261 10 11L10 5C10 3.67392 9.47322 2.40215 8.53553 1.46447C7.59785 0.526784 6.32608 0 5 0C3.67392 0 2.40215 0.526784 1.46447 1.46447C0.526784 2.40215 0 3.67392 0 5L0 11C0 12.3261 0.526784 13.5979 1.46447 14.5355C2.40215 15.4732 3.67392 16 5 16V16Z" fill="#ffffff"/>
</svg>
