<svg width="150" height="150" viewBox="0 0 150 150" fill="none" xmlns="http://www.w3.org/2000/svg">
<path d="M146.711 47.9938C144.431 45.7209 141.453 44.5607 138.459 44.5073C139.177 40.6056 138.028 36.4264 135.008 33.4153C132.778 31.1919 129.855 29.9119 126.725 29.7736C126.965 28.8006 127.089 27.7925 127.089 26.7648C127.089 23.4205 125.783 20.2761 123.411 17.9114C120.611 15.1186 116.806 13.9268 113.145 14.3292C113.464 10.5813 112.191 6.723 109.322 3.86135C104.156 -1.28904 95.7514 -1.28845 90.5863 3.86135L77.7113 16.7002C74.9355 15.1547 71.7983 14.328 68.5318 14.328C63.4905 14.328 58.751 16.2856 55.1862 19.8403L43.3997 31.5931C38.7733 36.2063 36.8863 42.7569 38.3513 49.1153L39.9859 56.2089L1.07327 95.0119C-0.0743497 96.1562 -0.0743497 98.0118 1.07327 99.1565C1.64723 99.7285 2.39928 100.015 3.15133 100.015C3.90338 100.015 4.65543 99.7285 5.22938 99.1565L45.2923 59.2068C46.0082 58.4929 46.305 57.4623 46.0784 56.4782L44.0797 47.8033C43.0705 43.4251 44.3701 38.9144 47.5558 35.738L59.3423 23.9852C61.7968 21.5373 65.0601 20.1896 68.5318 20.1896C72.0032 20.1896 75.2665 21.5376 77.721 23.9852L87.7125 33.9484C89.1046 35.3363 89.8713 37.1819 89.8713 39.1448C89.8713 41.1076 89.1049 42.9533 87.7125 44.3412C86.3206 45.7294 84.4697 46.4939 82.501 46.4939C80.5326 46.4939 78.6817 45.7296 77.2898 44.3412L71.4727 38.5405C70.3248 37.3964 68.4645 37.3964 67.3163 38.5405C66.1687 39.6849 66.1687 41.5405 67.3163 42.6851C75.2447 50.5908 75.2447 63.4543 67.3163 71.3599L67.1132 71.5624C65.9656 72.7068 65.9656 74.5624 67.1132 75.7071C67.6872 76.2791 68.4392 76.5654 69.1913 76.5654C69.9433 76.5654 70.6954 76.2791 71.2693 75.7071L71.4724 75.5046C77.9279 69.0674 80.3007 60.081 78.6006 51.7653C80.5123 52.3494 82.5304 52.4942 84.495 52.1982C85.0352 53.1228 85.6911 53.9785 86.4667 54.7521C88.838 57.1168 91.9914 58.4191 95.3452 58.4191C95.707 58.4191 96.0661 58.4009 96.4226 58.371C96.3914 58.7315 96.3732 59.0946 96.3732 59.4609C96.3732 62.7943 97.6751 65.9285 100.039 68.2858C102.48 70.719 105.683 71.9352 108.889 71.9352C109.173 71.9352 109.458 71.922 109.742 71.903C109.711 72.2546 109.693 72.6089 109.693 72.9662C109.693 76.1557 110.938 79.1545 113.2 81.4099C114.774 82.9789 116.681 84.0169 118.696 84.5285L110.718 92.484C105.418 97.7695 97.86 100.078 90.4991 98.6621L82.3623 97.0958C81.4039 96.9108 80.4171 97.213 79.727 97.9008L63.5125 114.069C62.3649 115.214 62.3649 117.069 63.5125 118.214C64.0865 118.786 64.8385 119.072 65.5906 119.072C66.3427 119.072 67.0947 118.786 67.6687 118.214L82.7799 103.146L89.3847 104.417C98.6626 106.204 108.191 103.291 114.874 96.6286L146.71 64.882C151.38 60.2255 151.38 52.6498 146.711 47.9938ZM82.3764 20.3382L94.743 8.00627C97.6164 5.1411 102.292 5.14081 105.166 8.00656C106.558 9.39446 107.325 11.2398 107.325 13.203C107.325 15.1658 106.558 17.0115 105.166 18.3993L92.754 30.7761C92.4769 30.4397 92.1819 30.1153 91.8692 29.8035L82.3764 20.3382ZM90.6237 50.6075C90.4247 50.4091 90.2413 50.1999 90.0712 49.9824C90.7027 49.5434 91.3058 49.047 91.8686 48.4855C94.371 45.9905 95.749 42.6731 95.749 39.1445C95.749 38.2009 95.6473 37.2731 95.4551 36.3713L109.811 22.0558C112.415 19.4599 116.651 19.4593 119.256 22.0558C120.517 23.3135 121.211 24.9857 121.211 26.7645C121.211 28.543 120.517 30.2152 119.255 31.473L100.068 50.6066C98.8063 51.8644 97.1294 52.5569 95.3458 52.5569C93.5616 52.5577 91.8847 51.865 90.6237 50.6075ZM104.196 64.1409C102.942 62.8905 102.251 61.2286 102.251 59.4603C102.251 57.692 102.942 56.0301 104.196 54.78L121.465 37.5597C122.718 36.3092 124.385 35.6208 126.158 35.6208C127.931 35.6208 129.598 36.3095 130.852 37.5597C133.441 40.1406 133.441 44.3394 130.852 46.92L113.583 64.1406C110.995 66.7212 106.784 66.7224 104.196 64.1409ZM142.555 60.7368L125.98 77.2646C123.602 79.6351 119.734 79.6357 117.357 77.2646C117.357 77.2646 117.357 77.2646 117.357 77.2646C116.205 76.1165 115.571 74.5897 115.571 72.9656C115.571 71.3415 116.205 69.8147 117.357 68.6665L133.932 52.1381C135.121 50.9527 136.682 50.3602 138.243 50.3602C139.805 50.3602 141.366 50.9527 142.555 52.1381C144.932 54.5089 144.932 58.3663 142.555 60.7368Z" fill="#9AA1AD" fill-opacity="0.1"/>
<path d="M44.8184 132.71L32.4973 144.997C31.3497 146.141 31.3497 147.996 32.4973 149.141C33.0712 149.713 33.8233 149.999 34.5753 149.999C35.3274 149.999 36.0794 149.713 36.6534 149.141L48.9745 136.855C50.1221 135.711 50.1221 133.855 48.9745 132.71C47.8266 131.566 45.9663 131.566 44.8184 132.71Z" fill="#9AA1AD" fill-opacity="0.1"/>
<path d="M56.2399 122.535C55.467 122.535 54.7088 122.848 54.1621 123.394C53.6158 123.939 53.3011 124.695 53.3011 125.465C53.3011 126.236 53.6155 126.992 54.1621 127.537C54.7088 128.082 55.467 128.396 56.2399 128.396C57.0128 128.396 57.771 128.082 58.3177 127.537C58.864 126.992 59.1787 126.236 59.1787 125.465C59.1787 124.695 58.8643 123.939 58.3177 123.394C57.771 122.848 57.0128 122.535 56.2399 122.535Z" fill="#9AA1AD" fill-opacity="0.1"/>
</svg>
