<svg width="150" height="150" viewBox="0 0 150 150" fill="none" xmlns="http://www.w3.org/2000/svg">
<g clip-path="url(#clip0)">
<path d="M75 11.7213C73.3775 11.7213 72.0732 13.028 72.0732 14.6481C72.0732 16.156 73.2076 17.4108 74.7071 17.5596C76.4429 17.7319 77.9268 16.3798 77.9268 14.6481C77.9268 13.0256 76.6201 11.7213 75 11.7213Z" fill="#9AA1AD"/>
<path d="M133.594 17.5776C125.517 17.5776 118.945 11.0063 118.945 2.9292C118.945 1.31143 117.633 -0.000488281 116.016 -0.000488281H33.9844C32.3666 -0.000488281 31.0547 1.31143 31.0547 2.9292C31.0547 11.0063 24.4834 17.5776 16.4062 17.5776C14.7885 17.5776 13.4766 18.8896 13.4766 20.5073V68.3169C13.4766 105.576 37.7622 138.962 74.1586 149.876C74.4331 149.958 74.7164 150 75 150C75.2836 150 75.5675 149.958 75.8417 149.876C111.45 139.195 136.523 106.391 136.523 68.3169V20.5073C136.523 18.8896 135.212 17.5776 133.594 17.5776ZM130.664 68.3169C130.664 103.311 108.334 133.617 75 144.006C41.932 133.7 19.3359 103.12 19.3359 68.3169V23.2284C28.304 21.9399 35.417 14.827 36.7055 5.85889H113.295C114.583 14.827 121.696 21.9399 130.664 23.2284V68.3169Z" fill="#9AA1AD"/>
<path d="M123.05 27.0962C116.941 24.4205 112.102 19.5821 109.427 13.4726C108.96 12.4067 107.907 11.7183 106.743 11.7183H86.7129C85.0951 11.7183 83.7832 13.0302 83.7832 14.6479C83.7832 16.2657 85.0951 17.5776 86.7129 17.5776H104.891C107.986 23.6365 112.886 28.5367 118.945 31.6322V68.3169C118.945 96.9877 101.734 121.726 75 131.629C48.2663 121.726 31.0547 96.9877 31.0547 68.3169V31.6322C37.1136 28.5367 42.0138 23.6365 45.1093 17.5776H63.2871C64.9049 17.5776 66.2168 16.2657 66.2168 14.6479C66.2168 13.0302 64.9049 11.7183 63.2871 11.7183H43.2568C42.0932 11.7183 41.0402 12.407 40.5732 13.4726C37.8976 19.5821 33.0592 24.4205 26.9496 27.0962C25.8841 27.5632 25.1953 28.6164 25.1953 29.7798V68.3169C25.1953 99.7269 44.6224 127.102 74.0227 137.506C74.3388 137.618 74.6692 137.674 75 137.674C75.3308 137.674 75.6612 137.618 75.9773 137.506C105.353 127.111 124.805 99.7524 124.805 68.3169V29.7798C124.805 28.6161 124.116 27.5632 123.05 27.0962Z" fill="#9AA1AD"/>
<path d="M75 42.7729C60.4611 42.7729 48.6328 54.6013 48.6328 69.1401C48.6328 83.679 60.4611 95.5073 75 95.5073C89.5389 95.5073 101.367 83.679 101.367 69.1401C101.367 54.6013 89.5389 42.7729 75 42.7729ZM75 89.6479C63.692 89.6479 54.4922 80.4481 54.4922 69.1401C54.4922 57.8321 63.692 48.6323 75 48.6323C86.308 48.6323 95.5078 57.8321 95.5078 69.1401C95.5078 80.4481 86.308 89.6479 75 89.6479Z" fill="#9AA1AD"/>
<path d="M88.7901 61.2089C87.6457 60.0651 85.7912 60.0651 84.6466 61.2089L72.07 73.7858L68.2823 69.9983C67.1379 68.8545 65.2834 68.8545 64.1388 69.9983C62.9948 71.1423 62.9948 72.9974 64.1388 74.1417L69.9982 80.0011C70.5706 80.5727 71.32 80.8589 72.07 80.8589C72.82 80.8589 73.5695 80.5727 74.1416 80.0008L88.7901 65.3523C89.9341 64.2083 89.9341 62.3532 88.7901 61.2089Z" fill="#9AA1AD"/>
</g>
<defs>
<clipPath id="clip0">
<rect width="150" height="150" fill="white" transform="translate(0 -0.000488281)"/>
</clipPath>
</defs>
</svg>
