<svg width="90" height="90" viewBox="0 0 90 90" fill="none" xmlns="http://www.w3.org/2000/svg">
<path d="M15.9961 31.6406C20.9656 31.6406 25.5568 29.3361 28.5926 25.3141L31.7623 21.117L26.5017 21.0887C22.163 21.0654 18.6328 17.5198 18.6328 13.1836C18.6328 10.2971 20.2447 7.63717 22.8377 6.24674L27.4546 3.77227L22.7167 1.53984C20.5485 0.5175 18.2878 0 15.9961 0C7.27225 0 0 7.09646 0 15.8203C0 24.5442 7.27225 31.6406 15.9961 31.6406Z" fill="white"/>
<path d="M44.9999 66.1201L30.6724 90H59.3275L44.9999 66.1201Z" fill="white"/>
<path d="M48.0964 27.0263L52.5187 19.8396L48.0282 17.0742L45 21.9949L41.9718 17.0742L37.4813 19.8396L41.9036 27.0263L6.61236 84.7265H0V89.9999H24.5225L45 55.6962L65.4775 89.9999H90V84.7265H83.3876L48.0964 27.0263Z" fill="white"/>
</svg>
