<svg width="18" height="18" viewBox="0 0 18 18" fill="none" xmlns="http://www.w3.org/2000/svg">
<g clip-path="url(#clip0)">
<path d="M10.4102 3.71731C10.4102 5.77037 8.7459 7.43463 6.69284 7.43463C4.63978 7.43463 2.97552 5.77037 2.97552 3.71731C2.97552 1.66425 4.63978 0 6.69284 0C8.7459 0 10.4102 1.66425 10.4102 3.71731Z" fill="#999999"/>
<path d="M10.5904 11.1808C9.47983 10.3134 8.13465 9.85645 6.70122 9.85645H6.68878C4.96625 9.8607 3.36109 10.5312 2.17503 11.7466C1.03514 12.9201 0.377195 14.5 0.314331 16.2309L11.3322 16.2099C10.846 15.3922 10.5896 14.4583 10.5904 13.5068V11.1808Z" fill="#999999"/>
<path d="M11.1771 11.1684V13.507C11.1791 15.3856 12.2926 17.0849 14.0144 17.8363L14.3832 17.9997L14.8149 17.8111C16.5698 17.0762 17.7117 15.3592 17.7109 13.4568V11.1684L14.3958 9.3999L11.1771 11.1684ZM16.3236 12.6353C16.4253 12.7603 16.4066 12.944 16.2817 13.046L14.0689 14.8439C14.0173 14.8872 13.952 14.911 13.8845 14.911C13.7983 14.9118 13.7164 14.8733 13.6624 14.8062L12.7111 13.6956C12.6056 13.5717 12.6207 13.386 12.7446 13.2806C12.8684 13.1753 13.0542 13.1904 13.1595 13.3142L13.9222 14.2069L15.9129 12.5891C16.0397 12.4909 16.2216 12.5113 16.3236 12.6353Z" fill="#999999"/>
</g>
<defs>
<clipPath id="clip0">
<rect width="18" height="18" fill="white"/>
</clipPath>
</defs>
</svg>
