<svg width="32" height="32" viewBox="0 0 32 32" fill="none" xmlns="http://www.w3.org/2000/svg">
<path d="M32 2.816V29.184C32 29.952 31.7227 30.6133 31.168 31.168C30.6133 31.7227 29.952 32 29.184 32H2.816C2.048 32 1.38667 31.7227 0.832 31.168C0.277333 30.6133 0 29.952 0 29.184V2.816C0 2.048 0.277333 1.38667 0.832 0.832C1.38667 0.277333 2.048 0 2.816 0H29.184C29.952 0 30.6133 0.277333 31.168 0.832C31.7227 1.38667 32 2.048 32 2.816ZM24.32 19.712C24.32 18.4747 23.9787 17.456 23.296 16.656C22.6133 15.856 21.6427 15.328 20.384 15.072V14.976C21.216 14.6347 21.8667 14.0907 22.336 13.344C22.8053 12.5973 23.04 11.7653 23.04 10.848C23.04 9.86667 22.832 9.06133 22.416 8.432C22 7.80267 21.408 7.34933 20.64 7.072C19.872 6.79467 19.1413 6.61333 18.448 6.528C17.7547 6.44267 16.928 6.4 15.968 6.4H8.96V25.6H16.64C17.6427 25.6 18.5813 25.4987 19.456 25.296C20.3307 25.0933 21.1413 24.7787 21.888 24.352C22.6347 23.9253 23.2267 23.312 23.664 22.512C24.1013 21.712 24.32 20.7787 24.32 19.712ZM18.144 11.84C18.144 12.2667 18.0693 12.6187 17.92 12.896C17.7707 13.1733 17.6053 13.3867 17.424 13.536C17.2427 13.6853 16.9653 13.792 16.592 13.856C16.2187 13.92 15.9253 13.9573 15.712 13.968C15.4987 13.9787 15.168 13.984 14.72 13.984H13.76V9.92H15.008C15.392 9.92 15.6853 9.92533 15.888 9.936C16.0907 9.94667 16.3627 9.984 16.704 10.048C17.0453 10.112 17.3013 10.208 17.472 10.336C17.6427 10.464 17.7973 10.656 17.936 10.912C18.0747 11.168 18.144 11.4773 18.144 11.84ZM19.36 19.616C19.36 19.872 19.328 20.112 19.264 20.336C19.2 20.56 19.1253 20.752 19.04 20.912C18.9547 21.072 18.8213 21.216 18.64 21.344C18.4587 21.472 18.304 21.5787 18.176 21.664C18.048 21.7493 17.856 21.8187 17.6 21.872C17.344 21.9253 17.1467 21.968 17.008 22C16.8693 22.032 16.6453 22.0533 16.336 22.064C16.0267 22.0747 15.8133 22.08 15.696 22.08H13.76V17.28H16.208L16.944 17.312L17.728 17.424L18.336 17.68L18.912 18.096L19.216 18.72L19.36 19.616Z" fill="white"/>
</svg>
