<svg width="256" height="157" viewBox="0 0 256 157" fill="none" xmlns="http://www.w3.org/2000/svg">
<circle cx="9.86127" cy="21.3647" r="1.95941" fill="#32363C"/>
<path d="M9.29698 21.3992C25.4948 19.7446 56.9499 22.3658 53.1878 46.0878C48.4852 75.7403 1.72058 83.7085 3.02685 110.618C4.07187 132.145 51.8816 145.974 75.6558 150.198C100.606 153.594 155.939 158.349 177.676 150.198C199.412 142.047 233.497 118.412 247.823 107.613" stroke="#32363C" stroke-width="4" stroke-dasharray="13.5 13.5"/>
<circle cx="253.09" cy="104.705" r="1.95941" fill="#32363C"/>
<path d="M10 1.1875C8.1773 1.18954 6.42987 1.87831 5.14102 3.10272C3.85218 4.32712 3.12716 5.98718 3.12501 7.71875C3.12282 9.13379 3.60937 10.5104 4.51001 11.6375C4.51001 11.6375 4.69751 11.872 4.72813 11.9059L10 17.8125L15.2744 11.9029C15.3019 11.8714 15.49 11.6375 15.49 11.6375L15.4906 11.6357C16.3908 10.5091 16.8771 9.13314 16.875 7.71875C16.8729 5.98718 16.1478 4.32712 14.859 3.10272C13.5701 1.87831 11.8227 1.18954 10 1.1875ZM10 10.0938C9.50555 10.0938 9.02221 9.95446 8.61108 9.69349C8.19996 9.43252 7.87953 9.0616 7.69031 8.62762C7.50109 8.19365 7.45158 7.71612 7.54804 7.25541C7.64451 6.79471 7.88261 6.37152 8.23224 6.03937C8.58187 5.70722 9.02733 5.48103 9.51228 5.38939C9.99723 5.29775 10.4999 5.34478 10.9567 5.52454C11.4135 5.70429 11.804 6.0087 12.0787 6.39927C12.3534 6.78984 12.5 7.24902 12.5 7.71875C12.4992 8.3484 12.2355 8.95203 11.7669 9.39726C11.2982 9.84249 10.6628 10.093 10 10.0938Z" fill="#32363C"/>
</svg>
