<svg width="775" height="412" viewBox="0 0 775 412" fill="none" xmlns="http://www.w3.org/2000/svg">
<g filter="url(#filter0_d)">
<ellipse rx="5.79327" ry="5.07494" transform="matrix(-1 0 0 1 728.932 55.9167)" fill="#32363C"/>
<path d="M730.599 56.0065C682.708 51.721 589.707 58.5102 600.83 119.951C614.734 196.752 753 217.39 749.137 287.086C746.048 342.842 604.692 378.66 534.4 389.599C460.633 398.396 297.031 410.711 232.764 389.599C168.497 368.488 67.7201 307.273 25.3649 279.304" stroke="#32363C" stroke-width="4" stroke-dasharray="13.5 13.5"/>
<ellipse rx="5.79327" ry="5.07494" transform="matrix(-1 0 0 1 9.79364 271.771)" fill="#32363C"/>
<path d="M746.394 3.65771C750.879 3.66301 755.179 5.44694 758.35 8.61818C761.521 11.7894 763.305 16.089 763.311 20.5739C763.316 24.2389 762.119 27.8044 759.903 30.7235C759.903 30.7235 759.441 31.331 759.366 31.4186L746.394 46.717L733.417 31.411C733.349 31.3294 732.886 30.7235 732.886 30.7235L732.885 30.7189C730.67 27.8011 729.473 24.2372 729.478 20.5739C729.484 16.089 731.267 11.7894 734.439 8.61818C737.61 5.44694 741.91 3.66301 746.394 3.65771ZM746.394 26.7252C747.611 26.7252 748.8 26.3644 749.812 25.6885C750.823 25.0126 751.612 24.0519 752.077 22.9279C752.543 21.8039 752.665 20.567 752.428 19.3738C752.19 18.1806 751.604 17.0845 750.744 16.2242C749.884 15.3639 748.788 14.7781 747.594 14.5407C746.401 14.3034 745.164 14.4252 744.04 14.8908C742.916 15.3564 741.956 16.1448 741.28 17.1564C740.604 18.1679 740.243 19.3572 740.243 20.5739C740.245 22.2047 740.894 23.7681 742.047 24.9212C743.2 26.0744 744.764 26.7231 746.394 26.7252Z" fill="#32363C"/>
</g>
<defs>
<filter id="filter0_d" x="0" y="0.582031" width="775" height="410.674" filterUnits="userSpaceOnUse" color-interpolation-filters="sRGB">
<feFlood flood-opacity="0" result="BackgroundImageFix"/>
<feColorMatrix in="SourceAlpha" type="matrix" values="0 0 0 0 0 0 0 0 0 0 0 0 0 0 0 0 0 0 127 0" result="hardAlpha"/>
<feOffset dy="4"/>
<feGaussianBlur stdDeviation="2"/>
<feComposite in2="hardAlpha" operator="out"/>
<feColorMatrix type="matrix" values="0 0 0 0 0 0 0 0 0 0 0 0 0 0 0 0 0 0 0.25 0"/>
<feBlend mode="normal" in2="BackgroundImageFix" result="effect1_dropShadow"/>
<feBlend mode="normal" in="SourceGraphic" in2="effect1_dropShadow" result="shape"/>
</filter>
</defs>
</svg>
