<svg width="277" height="180" viewBox="0 0 277 180" fill="none" xmlns="http://www.w3.org/2000/svg">
<circle cx="30.8613" cy="44.3647" r="1.95941" fill="#32363C"/>
<path d="M30.297 44.3992C46.4948 42.7446 77.9499 45.3658 74.1878 69.0878C69.4852 98.7403 22.7206 106.709 24.0269 133.618C25.0719 155.145 72.8816 168.974 96.6558 173.198C121.606 176.594 176.939 181.349 198.676 173.198C220.412 165.047 254.497 141.412 268.823 130.613" stroke="#32363C" stroke-width="4" stroke-dasharray="13.5 13.5"/>
<circle cx="274.09" cy="127.705" r="1.95941" fill="#32363C"/>
<path d="M22 2.625C17.9901 2.62952 14.1457 4.15206 11.3103 6.85863C8.47479 9.56521 6.87975 13.2348 6.87502 17.0625C6.87021 20.1905 7.94061 23.2336 9.92202 25.725C9.92202 25.725 10.3345 26.2434 10.4019 26.3183L22 39.375L33.6036 26.3117C33.6641 26.2421 34.078 25.725 34.078 25.725L34.0794 25.7211C36.0598 23.2307 37.1297 20.189 37.125 17.0625C37.1203 13.2348 35.5252 9.56521 32.6898 6.85863C29.8543 4.15206 26.01 2.62952 22 2.625ZM22 22.3125C20.9122 22.3125 19.8489 22.0046 18.9444 21.4277C18.0399 20.8508 17.335 20.0309 16.9187 19.0716C16.5024 18.1123 16.3935 17.0567 16.6057 16.0383C16.8179 15.0199 17.3417 14.0844 18.1109 13.3502C18.8801 12.616 19.8601 12.1159 20.927 11.9134C21.9939 11.7108 23.0998 11.8148 24.1048 12.2121C25.1098 12.6095 25.9688 13.2824 26.5731 14.1458C27.1774 15.0091 27.5 16.0241 27.5 17.0625C27.4982 18.4544 26.9181 19.7887 25.8871 20.7729C24.856 21.7571 23.4581 22.3108 22 22.3125Z" fill="#32363C"/>
</svg>
