<svg width="1327" height="725" viewBox="0 0 1327 725" fill="none" xmlns="http://www.w3.org/2000/svg">
<circle r="7.5" transform="matrix(-1 0 0 1 1308.5 217.5)" fill="#32363C"/>
<path d="M1300.03 212C1247.89 205.667 1146.63 215.7 1158.74 306.5C1173.88 420 1324.42 450.5 1320.22 553.5C1316.85 635.9 1162.95 688.833 1086.42 705C1006.1 718 827.977 736.2 758.005 705C688.034 673.8 578.311 583.333 532.196 542" stroke="#32363C" stroke-width="4" stroke-dasharray="13.5 13.5"/>
<circle r="7.5" transform="matrix(-1 0 0 1 525.115 536.5)" fill="#32363C"/>
<path d="M315 1C330.138 114.5 491.226 194.028 487.021 297.028C483.657 379.428 329.753 432.361 253.222 448.528C172.906 461.528 70.9717 465.2 1.00015 434" stroke="#32363C" stroke-width="4" stroke-dasharray="13 13"/>
<path d="M1309 176.25C1312.28 176.254 1315.43 177.559 1317.75 179.879C1320.07 182.199 1321.37 185.344 1321.37 188.625C1321.38 191.306 1320.5 193.915 1318.88 196.05C1318.88 196.05 1318.54 196.494 1318.49 196.559L1309 207.75L1299.51 196.553C1299.46 196.493 1299.12 196.05 1299.12 196.05L1299.12 196.047C1297.5 193.912 1296.62 191.305 1296.62 188.625C1296.63 185.344 1297.93 182.199 1300.25 179.879C1302.57 177.559 1305.72 176.254 1309 176.25ZM1309 193.125C1309.89 193.125 1310.76 192.861 1311.5 192.367C1312.24 191.872 1312.82 191.169 1313.16 190.347C1313.5 189.525 1313.59 188.62 1313.41 187.747C1313.24 186.874 1312.81 186.072 1312.18 185.443C1311.55 184.814 1310.75 184.385 1309.88 184.211C1309 184.038 1308.1 184.127 1307.28 184.468C1306.46 184.808 1305.75 185.385 1305.26 186.125C1304.76 186.865 1304.5 187.735 1304.5 188.625C1304.5 189.818 1304.98 190.962 1305.82 191.805C1306.66 192.649 1307.81 193.124 1309 193.125Z" fill="#32363C"/>
</svg>
